<svg width="100" height="101" viewBox="0 0 100 101" fill="none" xmlns="http://www.w3.org/2000/svg">
<path d="M31.53 68.5511C30.3183 67.3455 29.5196 65.668 29.2811 63.8276L25.8523 24.0799H86.1875C87.2893 24.0223 88.3857 24.2888 89.376 24.8551C90.3669 25.4214 91.2206 26.2694 91.8586 27.3215C92.4715 28.311 92.8748 29.4568 93.0353 30.6644C93.1958 31.872 93.1089 33.107 92.7819 34.2677L84.012 65.1397C83.553 66.7372 82.6602 68.1149 81.4696 69.0626C80.279 70.0103 78.8556 70.4755 77.4176 70.388H35.8752C34.285 70.4092 32.7418 69.7566 31.53 68.5511Z" fill="#D7E0FF"/>
<path d="M76.1733 93.6136C74.3419 93.6136 72.8568 92.1285 72.8568 90.2971C72.8568 88.4658 74.3419 86.9807 76.1733 86.9807C78.0053 86.9807 79.4897 88.4658 79.4897 90.2971C79.4897 92.1285 78.0053 93.6136 76.1733 93.6136Z" stroke="#4147D5" stroke-width="7.14" stroke-linecap="round" stroke-linejoin="round"/>
<path d="M33.0599 93.6136C31.2284 93.6136 29.7435 92.1285 29.7435 90.2971C29.7435 88.4658 31.2284 86.9807 33.0599 86.9807C34.8916 86.9807 36.3764 88.4658 36.3764 90.2971C36.3764 92.1285 34.8916 93.6136 33.0599 93.6136Z" stroke="#4147D5" stroke-width="7.14" stroke-linecap="round" stroke-linejoin="round"/>
<path d="M6.88643 7.38643H23.5073L25.2569 23.9686M25.2569 23.9686L29.5291 64.46C29.8853 67.8358 32.7385 70.3986 36.1409 70.3986H78.1518C81.2023 70.3986 83.8614 68.3271 84.6016 65.3744L92.9119 32.2102C93.9606 28.0238 90.7874 23.9686 86.4621 23.9686H25.2569Z" stroke="#4147D5" stroke-width="7.14" stroke-linecap="round" stroke-linejoin="round"/>
<path d="M47.9272 40.5507V53.8164" stroke="#4147D5" stroke-width="7.14" stroke-linecap="round" stroke-linejoin="round"/>
<path d="M67.8258 40.5507V53.8164" stroke="#4147D5" stroke-width="7.14" stroke-linecap="round" stroke-linejoin="round"/>
</svg>
