<svg width="124" height="147" viewBox="0 0 124 147" fill="none" xmlns="http://www.w3.org/2000/svg">
<path d="M17.6386 128.001C17.6386 128.999 17.4268 129.915 17.0033 130.747C16.5797 131.568 15.9834 132.256 15.2143 132.81C14.4564 133.365 13.5815 133.731 12.5895 133.909V136.072H9.86424V133.909C8.88338 133.731 8.00842 133.365 7.23934 132.81C6.48141 132.256 5.89066 131.562 5.46711 130.73C5.04356 129.898 4.83179 128.988 4.83179 128.001C4.83179 126.858 5.10487 125.832 5.65102 124.922C6.20833 124.001 6.97183 123.28 7.94154 122.759C8.92239 122.237 10.0203 121.977 11.2352 121.977C12.4501 121.977 13.5424 122.237 14.5121 122.759C15.4819 123.28 16.2454 124.001 16.8027 124.922C17.36 125.832 17.6386 126.858 17.6386 128.001ZM12.4724 131.546C13.2192 131.313 13.8099 130.885 14.2446 130.264C14.6793 129.632 14.8967 128.877 14.8967 128.001C14.8967 127.28 14.7351 126.636 14.4118 126.071C14.0997 125.505 13.665 125.067 13.1077 124.756C12.5504 124.434 11.9263 124.273 11.2352 124.273C10.5441 124.273 9.91997 124.434 9.36266 124.756C8.80536 125.067 8.36509 125.505 8.04185 126.071C7.72976 126.636 7.57372 127.28 7.57372 128.001C7.57372 128.877 7.7855 129.626 8.20905 130.248C8.64374 130.869 9.22891 131.302 9.96455 131.546V129.149H12.4724V131.546ZM28.552 124.872V133.825H26.0776V132.76C25.7321 133.149 25.3197 133.448 24.8404 133.659C24.3611 133.859 23.8428 133.959 23.2855 133.959C22.104 133.959 21.1677 133.62 20.4767 132.943C19.7856 132.267 19.4401 131.263 19.4401 129.931V124.872H22.0483V129.549C22.0483 130.991 22.6557 131.712 23.8707 131.712C24.4948 131.712 24.9964 131.512 25.3754 131.113C25.7543 130.702 25.9438 130.098 25.9438 129.299V124.872H28.552ZM40.097 124.872V133.825H37.6058V132.794C36.9594 133.57 36.0231 133.959 34.797 133.959C33.9499 133.959 33.1808 133.77 32.4898 133.393C31.8099 133.016 31.2749 132.478 30.8847 131.779C30.4946 131.08 30.2996 130.27 30.2996 129.349C30.2996 128.428 30.4946 127.618 30.8847 126.919C31.2749 126.22 31.8099 125.682 32.4898 125.305C33.1808 124.928 33.9499 124.739 34.797 124.739C35.9451 124.739 36.8423 125.1 37.4888 125.821V124.872H40.097ZM35.2484 131.829C35.906 131.829 36.4522 131.607 36.8869 131.163C37.3216 130.708 37.5389 130.103 37.5389 129.349C37.5389 128.595 37.3216 127.995 36.8869 127.552C36.4522 127.097 35.906 126.869 35.2484 126.869C34.5797 126.869 34.0279 127.097 33.5932 127.552C33.1585 127.995 32.9412 128.595 32.9412 129.349C32.9412 130.103 33.1585 130.708 33.5932 131.163C34.0279 131.607 34.5797 131.829 35.2484 131.829ZM47.9788 124.739C49.0934 124.739 49.9907 125.072 50.6706 125.738C51.3617 126.403 51.7072 127.391 51.7072 128.7V133.825H49.099V129.099C49.099 128.389 48.943 127.862 48.6309 127.518C48.3188 127.163 47.8674 126.986 47.2766 126.986C46.619 126.986 46.0952 127.191 45.705 127.602C45.3149 128.001 45.1199 128.6 45.1199 129.399V133.825H42.5117V124.872H45.0028V125.921C45.3484 125.544 45.7775 125.255 46.2902 125.055C46.8029 124.845 47.3658 124.739 47.9788 124.739ZM59.4883 133.393C59.232 133.581 58.9143 133.726 58.5354 133.825C58.1675 133.914 57.783 133.959 57.3817 133.959C56.3006 133.959 55.4702 133.687 54.8906 133.143C54.311 132.6 54.0212 131.801 54.0212 130.747V122.892H56.6294V125.072H58.853V127.069H56.6294V130.714C56.6294 131.091 56.7241 131.385 56.9136 131.596C57.1031 131.795 57.3762 131.895 57.7328 131.895C58.1341 131.895 58.4908 131.784 58.8029 131.562L59.4883 133.393ZM64.964 133.959C64.0166 133.959 63.1639 133.764 62.406 133.376C61.6592 132.977 61.074 132.428 60.6505 131.729C60.2269 131.03 60.0151 130.236 60.0151 129.349C60.0151 128.461 60.2269 127.668 60.6505 126.969C61.074 126.27 61.6592 125.727 62.406 125.338C63.1639 124.939 64.0166 124.739 64.964 124.739C65.9114 124.739 66.7585 124.939 67.5053 125.338C68.2521 125.727 68.8372 126.27 69.2608 126.969C69.6845 127.668 69.8963 128.461 69.8963 129.349C69.8963 130.236 69.6845 131.03 69.2608 131.729C68.8372 132.428 68.2521 132.977 67.5053 133.376C66.7585 133.764 65.9114 133.959 64.964 133.959ZM64.964 131.829C65.6328 131.829 66.1789 131.607 66.6025 131.163C67.0372 130.708 67.2545 130.103 67.2545 129.349C67.2545 128.595 67.0372 127.995 66.6025 127.552C66.1789 127.097 65.6328 126.869 64.964 126.869C64.2952 126.869 63.7435 127.097 63.3088 127.552C62.8741 127.995 62.6568 128.595 62.6568 129.349C62.6568 130.103 62.8741 130.708 63.3088 131.163C63.7435 131.607 64.2952 131.829 64.964 131.829ZM76.5581 122.176H81.8748C83.1455 122.176 84.2656 122.421 85.2353 122.909C86.2162 123.386 86.9741 124.062 87.5091 124.939C88.0553 125.815 88.3284 126.836 88.3284 128.001C88.3284 129.166 88.0553 130.187 87.5091 131.063C86.9741 131.939 86.2162 132.622 85.2353 133.11C84.2656 133.587 83.1455 133.825 81.8748 133.825H76.5581V122.176ZM81.741 131.612C82.9114 131.612 83.8421 131.29 84.5331 130.647C85.2353 129.992 85.5864 129.11 85.5864 128.001C85.5864 126.892 85.2353 126.015 84.5331 125.372C83.8421 124.717 82.9114 124.39 81.741 124.39H79.2666V131.612H81.741ZM99.2487 124.872V133.825H96.7743V132.76C96.4288 133.149 96.0164 133.448 95.5371 133.659C95.0578 133.859 94.5395 133.959 93.9822 133.959C92.8007 133.959 91.8645 133.62 91.1734 132.943C90.4824 132.267 90.1368 131.263 90.1368 129.931V124.872H92.745V129.549C92.745 130.991 93.3525 131.712 94.5674 131.712C95.1916 131.712 95.6931 131.512 96.0721 131.113C96.4511 130.702 96.6405 130.098 96.6405 129.299V124.872H99.2487ZM104.156 126.054C104.469 125.621 104.887 125.294 105.41 125.072C105.945 124.85 106.558 124.739 107.25 124.739V127.136C106.96 127.113 106.765 127.102 106.664 127.102C105.918 127.102 105.332 127.313 104.909 127.735C104.485 128.145 104.274 128.766 104.274 129.599V133.825H101.665V124.872H104.156V126.054ZM117.847 124.872V133.825H115.356V132.794C114.71 133.57 113.773 133.959 112.547 133.959C111.7 133.959 110.931 133.77 110.24 133.393C109.56 133.016 109.025 132.478 108.635 131.779C108.245 131.08 108.05 130.27 108.05 129.349C108.05 128.428 108.245 127.618 108.635 126.919C109.025 126.22 109.56 125.682 110.24 125.305C110.931 124.928 111.7 124.739 112.547 124.739C113.695 124.739 114.593 125.1 115.239 125.821V124.872H117.847ZM112.999 131.829C113.656 131.829 114.203 131.607 114.637 131.163C115.072 130.708 115.289 130.103 115.289 129.349C115.289 128.595 115.072 127.995 114.637 127.552C114.203 127.097 113.656 126.869 112.999 126.869C112.33 126.869 111.778 127.097 111.344 127.552C110.909 127.995 110.692 128.595 110.692 129.349C110.692 130.103 110.909 130.708 111.344 131.163C111.778 131.607 112.33 131.829 112.999 131.829Z" fill="black"/>
<path d="M16.1033 142.166H17.2374V144.92H16.3026V144.599C15.9297 144.874 15.4494 145.011 14.8619 145.011C14.3664 145.011 13.9117 144.905 13.4979 144.691C13.0841 144.477 12.7546 144.168 12.5094 143.76C12.2642 143.349 12.1416 142.86 12.1416 142.296C12.1416 141.752 12.2668 141.269 12.5171 140.847C12.7725 140.42 13.125 140.087 13.5746 139.848C14.0241 139.608 14.5299 139.489 15.0918 139.489C15.5618 139.489 15.9884 139.568 16.3715 139.726C16.7547 139.883 17.0765 140.112 17.3371 140.412L16.5401 141.144C16.157 140.743 15.6946 140.542 15.1531 140.542C14.8109 140.542 14.5069 140.615 14.2412 140.763C13.9756 140.905 13.7687 141.109 13.6205 141.373C13.4724 141.637 13.3983 141.942 13.3983 142.288C13.3983 142.65 13.4699 142.957 13.6129 143.211C13.7611 143.466 13.9577 143.659 14.2029 143.791C14.4481 143.918 14.7163 143.982 15.0075 143.982C15.4417 143.982 15.8071 143.86 16.1033 143.616V142.166ZM20.3829 144.027C20.5975 144.027 20.7866 143.997 20.95 143.936C21.1186 143.87 21.2744 143.768 21.4174 143.631L22.0535 144.317C21.6652 144.76 21.0982 144.981 20.3523 144.981C19.8874 144.981 19.4762 144.892 19.1186 144.714C18.761 144.531 18.4851 144.279 18.291 143.959C18.0969 143.638 17.9998 143.275 17.9998 142.868C17.9998 142.467 18.0943 142.105 18.2833 141.785C18.4774 141.46 18.7406 141.208 19.0726 141.03C19.4097 140.847 19.7878 140.755 20.2067 140.755C20.6001 140.755 20.9577 140.839 21.2795 141.007C21.6013 141.17 21.8568 141.408 22.0458 141.724C22.2399 142.034 22.337 142.403 22.337 142.83L19.2871 143.417C19.374 143.62 19.5094 143.773 19.6933 143.875C19.8823 143.977 20.1122 144.027 20.3829 144.027ZM20.2067 141.655C19.9053 141.655 19.6601 141.752 19.471 141.945C19.2821 142.139 19.1824 142.406 19.1722 142.746L21.1799 142.357C21.1237 142.143 21.0088 141.973 20.835 141.846C20.6614 141.719 20.4519 141.655 20.2067 141.655ZM24.2823 141.358C24.4253 141.16 24.6169 141.01 24.857 140.908C25.1022 140.806 25.3832 140.755 25.7 140.755V141.854C25.5671 141.843 25.4777 141.838 25.4318 141.838C25.0894 141.838 24.8212 141.935 24.6271 142.128C24.433 142.316 24.336 142.601 24.336 142.982V144.92H23.1405V140.816H24.2823V141.358ZM28.45 144.027C28.6645 144.027 28.8535 143.997 29.017 143.936C29.1856 143.87 29.3414 143.768 29.4845 143.631L30.1205 144.317C29.7323 144.76 29.1652 144.981 28.4193 144.981C27.9545 144.981 27.5432 144.892 27.1856 144.714C26.828 144.531 26.5521 144.279 26.358 143.959C26.1638 143.638 26.0668 143.275 26.0668 142.868C26.0668 142.467 26.1613 142.105 26.3503 141.785C26.5445 141.46 26.8075 141.208 27.1396 141.03C27.4768 140.847 27.8548 140.755 28.2737 140.755C28.6671 140.755 29.0247 140.839 29.3465 141.007C29.6684 141.17 29.9238 141.408 30.1128 141.724C30.307 142.034 30.404 142.403 30.404 142.83L27.3542 143.417C27.441 143.62 27.5764 143.773 27.7603 143.875C27.9493 143.977 28.1792 144.027 28.45 144.027ZM28.2737 141.655C27.9723 141.655 27.7271 141.752 27.5381 141.945C27.3491 142.139 27.2495 142.406 27.2392 142.746L29.2469 142.357C29.1907 142.143 29.0758 141.973 28.9021 141.846C28.7284 141.719 28.5189 141.655 28.2737 141.655ZM33.7134 140.755C34.2242 140.755 34.6354 140.908 34.9471 141.213C35.2638 141.518 35.4222 141.971 35.4222 142.571V144.92H34.2268V142.754C34.2268 142.428 34.1552 142.186 34.0122 142.029C33.8691 141.866 33.6622 141.785 33.3915 141.785C33.0901 141.785 32.8499 141.879 32.6712 142.067C32.4924 142.25 32.403 142.525 32.403 142.891V144.92H31.2076V140.816H32.3494V141.297C32.5077 141.124 32.7044 140.992 32.9394 140.9C33.1744 140.804 33.4323 140.755 33.7134 140.755ZM38.543 144.981C38.1036 144.981 37.7078 144.892 37.3553 144.714C37.0078 144.531 36.7346 144.279 36.5353 143.959C36.3412 143.638 36.2441 143.275 36.2441 142.868C36.2441 142.461 36.3412 142.098 36.5353 141.777C36.7346 141.457 37.0078 141.208 37.3553 141.03C37.7078 140.847 38.1036 140.755 38.543 140.755C38.9772 140.755 39.3553 140.847 39.6771 141.03C40.0041 141.208 40.2416 141.465 40.3898 141.8L39.4626 142.296C39.248 141.92 38.9389 141.732 38.5353 141.732C38.2237 141.732 37.9657 141.834 37.7614 142.037C37.557 142.24 37.4549 142.517 37.4549 142.868C37.4549 143.219 37.557 143.496 37.7614 143.699C37.9657 143.903 38.2237 144.005 38.5353 144.005C38.944 144.005 39.2531 143.817 39.4626 143.44L40.3898 143.944C40.2416 144.269 40.0041 144.523 39.6771 144.706C39.3553 144.889 38.9772 144.981 38.543 144.981ZM41.078 140.816H42.2735V144.92H41.078V140.816ZM41.6758 140.244C41.4561 140.244 41.2773 140.18 41.1393 140.054C41.0014 139.927 40.9324 139.769 40.9324 139.581C40.9324 139.393 41.0014 139.235 41.1393 139.108C41.2773 138.981 41.4561 138.917 41.6758 138.917C41.8954 138.917 42.0742 138.978 42.2122 139.1C42.3501 139.222 42.4191 139.375 42.4191 139.558C42.4191 139.756 42.3501 139.921 42.2122 140.054C42.0742 140.18 41.8954 140.244 41.6758 140.244ZM47.5669 140.816V144.92H46.4251V144.447C46.1288 144.803 45.6997 144.981 45.1377 144.981C44.7495 144.981 44.397 144.894 44.0802 144.722C43.7686 144.549 43.5234 144.302 43.3446 143.982C43.1658 143.661 43.0764 143.29 43.0764 142.868C43.0764 142.446 43.1658 142.075 43.3446 141.754C43.5234 141.434 43.7686 141.187 44.0802 141.015C44.397 140.842 44.7495 140.755 45.1377 140.755C45.6639 140.755 46.0752 140.92 46.3714 141.251V140.816H47.5669ZM45.3446 144.005C45.6461 144.005 45.8964 143.903 46.0956 143.699C46.2948 143.491 46.3944 143.214 46.3944 142.868C46.3944 142.522 46.2948 142.247 46.0956 142.044C45.8964 141.836 45.6461 141.732 45.3446 141.732C45.0381 141.732 44.7852 141.836 44.586 142.044C44.3868 142.247 44.2871 142.522 44.2871 142.868C44.2871 143.214 44.3868 143.491 44.586 143.699C44.7852 143.903 45.0381 144.005 45.3446 144.005ZM52.8729 139.26V144.92H51.7311V144.447C51.4348 144.803 51.0057 144.981 50.4437 144.981C50.0555 144.981 49.703 144.894 49.3863 144.722C49.0746 144.549 48.8294 144.302 48.6506 143.982C48.4719 143.661 48.3824 143.29 48.3824 142.868C48.3824 142.446 48.4719 142.075 48.6506 141.754C48.8294 141.434 49.0746 141.187 49.3863 141.015C49.703 140.842 50.0555 140.755 50.4437 140.755C50.97 140.755 51.3812 140.92 51.6775 141.251V139.26H52.8729ZM50.6506 144.005C50.9521 144.005 51.2024 143.903 51.4016 143.699C51.6008 143.491 51.7005 143.214 51.7005 142.868C51.7005 142.522 51.6008 142.247 51.4016 142.044C51.2024 141.836 50.9521 141.732 50.6506 141.732C50.3441 141.732 50.0912 141.836 49.892 142.044C49.6928 142.247 49.5932 142.522 49.5932 142.868C49.5932 143.214 49.6928 143.491 49.892 143.699C50.0912 143.903 50.3441 144.005 50.6506 144.005ZM55.941 144.981C55.5068 144.981 55.116 144.892 54.7685 144.714C54.4263 144.531 54.1581 144.279 53.9639 143.959C53.7699 143.638 53.6728 143.275 53.6728 142.868C53.6728 142.461 53.7699 142.098 53.9639 141.777C54.1581 141.457 54.4263 141.208 54.7685 141.03C55.116 140.847 55.5068 140.755 55.941 140.755C56.3753 140.755 56.7635 140.847 57.1057 141.03C57.4481 141.208 57.7163 141.457 57.9103 141.777C58.1045 142.098 58.2015 142.461 58.2015 142.868C58.2015 143.275 58.1045 143.638 57.9103 143.959C57.7163 144.279 57.4481 144.531 57.1057 144.714C56.7635 144.892 56.3753 144.981 55.941 144.981ZM55.941 144.005C56.2475 144.005 56.4979 143.903 56.6919 143.699C56.8912 143.491 56.9908 143.214 56.9908 142.868C56.9908 142.522 56.8912 142.247 56.6919 142.044C56.4979 141.836 56.2475 141.732 55.941 141.732C55.6345 141.732 55.3816 141.836 55.1823 142.044C54.9831 142.247 54.8835 142.522 54.8835 142.868C54.8835 143.214 54.9831 143.491 55.1823 143.699C55.3816 143.903 55.6345 144.005 55.941 144.005ZM60.1423 141.358C60.2854 141.16 60.477 141.01 60.7171 140.908C60.9623 140.806 61.2433 140.755 61.56 140.755V141.854C61.4272 141.843 61.3378 141.838 61.2918 141.838C60.9495 141.838 60.6813 141.935 60.4872 142.128C60.2931 142.316 60.196 142.601 60.196 142.982V144.92H59.0006V140.816H60.1423V141.358ZM68.6702 139.26V144.92H67.5284V144.447C67.2321 144.803 66.803 144.981 66.2411 144.981C65.8528 144.981 65.5003 144.894 65.1836 144.722C64.8719 144.549 64.6267 144.302 64.4479 143.982C64.2691 143.661 64.1797 143.29 64.1797 142.868C64.1797 142.446 64.2691 142.075 64.4479 141.754C64.6267 141.434 64.8719 141.187 65.1836 141.015C65.5003 140.842 65.8528 140.755 66.2411 140.755C66.7672 140.755 67.1784 140.92 67.4748 141.251V139.26H68.6702ZM66.448 144.005C66.7493 144.005 66.9997 143.903 67.1989 143.699C67.3982 143.491 67.4978 143.214 67.4978 142.868C67.4978 142.522 67.3982 142.247 67.1989 142.044C66.9997 141.836 66.7493 141.732 66.448 141.732C66.1414 141.732 65.8886 141.836 65.6893 142.044C65.4901 142.247 65.3905 142.522 65.3905 142.868C65.3905 143.214 65.4901 143.491 65.6893 143.699C65.8886 143.903 66.1414 144.005 66.448 144.005ZM71.8532 144.027C72.0677 144.027 72.2565 143.997 72.4202 143.936C72.5888 143.87 72.7449 143.768 72.8877 143.631L73.5237 144.317C73.1357 144.76 72.5686 144.981 71.8225 144.981C71.3579 144.981 70.9462 144.892 70.5888 144.714C70.2314 144.531 69.9556 144.279 69.7612 143.959C69.5671 143.638 69.4701 143.275 69.4701 142.868C69.4701 142.467 69.5646 142.105 69.7535 141.785C69.9479 141.46 70.2105 141.208 70.5428 141.03C70.88 140.847 71.2582 140.755 71.6769 140.755C72.0705 140.755 72.4279 140.839 72.7497 141.007C73.0716 141.17 73.3272 141.408 73.516 141.724C73.7104 142.034 73.8072 142.403 73.8072 142.83L70.7574 143.417C70.8445 143.62 70.9796 143.773 71.1635 143.875C71.3523 143.977 71.5822 144.027 71.8532 144.027ZM71.6769 141.655C71.3753 141.655 71.1301 141.752 70.9413 141.945C70.7525 142.139 70.6529 142.406 70.6424 142.746L72.6501 142.357C72.5937 142.143 72.4787 141.973 72.3053 141.846C72.1318 141.719 71.9221 141.655 71.6769 141.655ZM78.7735 144.981C78.3339 144.981 77.9382 144.892 77.5857 144.714C77.2381 144.531 76.965 144.279 76.7658 143.959C76.5714 143.638 76.4746 143.275 76.4746 142.868C76.4746 142.461 76.5714 142.098 76.7658 141.777C76.965 141.457 77.2381 141.208 77.5857 141.03C77.9382 140.847 78.3339 140.755 78.7735 140.755C79.2075 140.755 79.5858 140.847 79.9076 141.03C80.2343 141.208 80.4719 141.465 80.6202 141.8L79.693 142.296C79.4785 141.92 79.1692 141.732 78.7658 141.732C78.4537 141.732 78.196 141.834 77.9919 142.037C77.7871 142.24 77.6853 142.517 77.6853 142.868C77.6853 143.219 77.7871 143.496 77.9919 143.699C78.196 143.903 78.4537 144.005 78.7658 144.005C79.174 144.005 79.4834 143.817 79.693 143.44L80.6202 143.944C80.4719 144.269 80.2343 144.523 79.9076 144.706C79.5858 144.889 79.2075 144.981 78.7735 144.981ZM83.218 144.981C82.7833 144.981 82.3925 144.892 82.0456 144.714C81.7028 144.531 81.4346 144.279 81.2409 143.959C81.0466 143.638 80.9498 143.275 80.9498 142.868C80.9498 142.461 81.0466 142.098 81.2409 141.777C81.4346 141.457 81.7028 141.208 82.0456 141.03C82.3925 140.847 82.7833 140.755 83.218 140.755C83.652 140.755 84.04 140.847 84.3827 141.03C84.7248 141.208 84.993 141.457 85.1874 141.777C85.381 142.098 85.4785 142.461 85.4785 142.868C85.4785 143.275 85.381 143.638 85.1874 143.959C84.993 144.279 84.7248 144.531 84.3827 144.714C84.04 144.892 83.652 144.981 83.218 144.981ZM83.218 144.005C83.5245 144.005 83.7746 143.903 83.9689 143.699C84.1682 143.491 84.2678 143.214 84.2678 142.868C84.2678 142.522 84.1682 142.247 83.9689 142.044C83.7746 141.836 83.5245 141.732 83.218 141.732C82.9115 141.732 82.6586 141.836 82.4594 142.044C82.2601 142.247 82.1605 142.522 82.1605 142.868C82.1605 143.214 82.2601 143.491 82.4594 143.699C82.6586 143.903 82.9115 144.005 83.218 144.005ZM91.5573 140.755C92.0728 140.755 92.4817 140.908 92.7834 141.213C93.0899 141.513 93.2432 141.965 93.2432 142.571V144.92H92.0477V142.754C92.0477 142.428 91.9788 142.186 91.8409 142.029C91.7078 141.866 91.5162 141.785 91.2661 141.785C90.9847 141.785 90.7625 141.877 90.5995 142.06C90.4358 142.238 90.3542 142.505 90.3542 142.86V144.92H89.1588V142.754C89.1588 142.108 88.8983 141.785 88.3772 141.785C88.1013 141.785 87.8812 141.877 87.7182 142.06C87.5545 142.238 87.473 142.505 87.473 142.86V144.92H86.2776V140.816H87.4193V141.289C87.5726 141.117 87.7586 140.984 87.9787 140.893C88.2031 140.801 88.4483 140.755 88.7144 140.755C89.0056 140.755 89.2682 140.814 89.5037 140.931C89.7384 141.042 89.9272 141.208 90.0707 141.427C90.2393 141.213 90.4511 141.048 90.7067 140.931C90.9673 140.814 91.2508 140.755 91.5573 140.755ZM96.7514 140.755C97.1345 140.755 97.4815 140.844 97.7935 141.022C98.1098 141.195 98.3578 141.442 98.5369 141.762C98.7152 142.078 98.8051 142.446 98.8051 142.868C98.8051 143.29 98.7152 143.661 98.5369 143.982C98.3578 144.297 98.1098 144.543 97.7935 144.722C97.4815 144.894 97.1345 144.981 96.7514 144.981C96.2247 144.981 95.8109 144.816 95.51 144.485V146.4H94.3146V140.816H95.4564V141.289C95.7524 140.934 96.1843 140.755 96.7514 140.755ZM96.5445 144.005C96.851 144.005 97.1011 143.903 97.2955 143.699C97.4947 143.491 97.5943 143.214 97.5943 142.868C97.5943 142.522 97.4947 142.247 97.2955 142.044C97.1011 141.836 96.851 141.732 96.5445 141.732C96.238 141.732 95.9851 141.836 95.7859 142.044C95.5915 142.247 95.4947 142.522 95.4947 142.868C95.4947 143.214 95.5915 143.491 95.7859 143.699C95.9851 143.903 96.238 144.005 96.5445 144.005ZM100.747 141.358C100.89 141.16 101.082 141.01 101.321 140.908C101.566 140.806 101.848 140.755 102.164 140.755V141.854C102.032 141.843 101.942 141.838 101.896 141.838C101.554 141.838 101.286 141.935 101.091 142.128C100.898 142.316 100.8 142.601 100.8 142.982V144.92H99.6048V140.816H100.747V141.358ZM107.022 140.816V144.92H105.88V144.447C105.584 144.803 105.155 144.981 104.593 144.981C104.205 144.981 103.852 144.894 103.535 144.722C103.224 144.549 102.979 144.302 102.8 143.982C102.62 143.661 102.531 143.29 102.531 142.868C102.531 142.446 102.62 142.075 102.8 141.754C102.979 141.434 103.224 141.187 103.535 141.015C103.852 140.842 104.205 140.755 104.593 140.755C105.119 140.755 105.53 140.92 105.826 141.251V140.816H107.022ZM104.8 144.005C105.101 144.005 105.351 143.903 105.551 143.699C105.75 143.491 105.849 143.214 105.849 142.868C105.849 142.522 105.75 142.247 105.551 142.044C105.351 141.836 105.101 141.732 104.8 141.732C104.493 141.732 104.24 141.836 104.041 142.044C103.842 142.247 103.742 142.522 103.742 142.868C103.742 143.214 103.842 143.491 104.041 143.699C104.24 143.903 104.493 144.005 104.8 144.005ZM109.516 144.981C109.173 144.981 108.839 144.94 108.512 144.859C108.184 144.772 107.924 144.665 107.73 144.538L108.129 143.684C108.313 143.801 108.535 143.898 108.795 143.974C109.056 144.045 109.311 144.081 109.562 144.081C110.067 144.081 110.32 143.956 110.32 143.707C110.32 143.59 110.251 143.506 110.113 143.455C109.976 143.405 109.763 143.361 109.477 143.326C109.14 143.275 108.862 143.216 108.642 143.15C108.422 143.084 108.23 142.967 108.067 142.799C107.909 142.632 107.83 142.392 107.83 142.082C107.83 141.823 107.904 141.594 108.052 141.396C108.205 141.193 108.425 141.035 108.711 140.923C109.002 140.811 109.344 140.755 109.738 140.755C110.029 140.755 110.318 140.789 110.604 140.854C110.895 140.915 111.135 141.002 111.324 141.114L110.926 141.96C110.563 141.757 110.167 141.655 109.738 141.655C109.482 141.655 109.291 141.691 109.163 141.762C109.035 141.834 108.972 141.925 108.972 142.037C108.972 142.164 109.041 142.253 109.179 142.304C109.316 142.354 109.536 142.403 109.838 142.449C110.175 142.505 110.451 142.566 110.665 142.632C110.88 142.693 111.066 142.807 111.225 142.975C111.383 143.143 111.462 143.376 111.462 143.677C111.462 143.931 111.385 144.157 111.232 144.355C111.079 144.554 110.854 144.709 110.558 144.821C110.267 144.927 109.919 144.981 109.516 144.981Z" fill="black"/>
<path fill-rule="evenodd" clip-rule="evenodd" d="M1.71764 30.3174C1.79369 28.0208 3.72578 26.2203 6.03306 26.296L7.58861 26.347C7.66608 26.3495 7.74333 26.3521 7.82031 26.3547C11.4982 26.4751 14.6062 26.577 17.1372 26.949C19.8278 27.3445 22.2837 28.0945 24.4799 29.7822C26.6762 31.4701 28.0267 33.6451 29.092 36.1359C30.0943 38.479 30.9798 41.4461 32.0278 44.9572L36.2479 59.0948C38.5264 66.7281 40.1241 72.0494 41.8656 75.9054C43.5575 79.6518 45.1383 81.4331 47.0563 82.4677C48.9742 83.5015 51.3367 83.8475 55.4134 83.2124C59.6102 82.5592 64.9613 80.9866 72.6298 78.7185L110.028 67.6583C112.241 67.0038 114.568 68.2585 115.225 70.4615C115.883 72.6645 114.622 74.9804 112.409 75.635L74.7176 86.782C67.4115 88.9426 61.5223 90.6844 56.7054 91.434C51.7044 92.2127 47.2445 92.0331 43.0732 89.7837C38.9021 87.5336 36.3159 83.9127 34.2405 79.3169C32.2415 74.8909 30.4918 69.029 28.3211 61.7567L24.08 47.5485C22.9482 43.7569 22.1932 41.2499 21.4 39.3953C20.6489 37.6391 20.023 36.87 19.371 36.3689C18.719 35.8679 17.813 35.4599 15.916 35.181C13.9126 34.8866 11.2849 34.7941 7.31323 34.6638L5.75774 34.6127C3.45046 34.5371 1.64165 32.614 1.71764 30.3174Z" fill="#FFE600" stroke="#008D30" stroke-width="3.33333"/>
<path d="M59.089 101.531C63.5149 100.222 68.1689 102.733 69.4839 107.138C70.7991 111.543 68.277 116.176 63.8511 117.485C59.4252 118.793 54.7712 116.283 53.4562 111.878C52.1412 107.473 54.6631 102.84 59.089 101.531Z" fill="#FFE600" stroke="#008D30" stroke-width="3.33333"/>
<path d="M117.567 92.9186C116.252 88.5127 111.598 86.0033 107.172 87.3118C102.747 88.6209 100.224 93.2528 101.539 97.6586C102.855 102.064 107.509 104.574 111.934 103.265C116.36 101.956 118.882 97.3237 117.567 92.9186Z" fill="#FFE600" stroke="#008D30" stroke-width="3.33333"/>
<path d="M36.7309 38.9396L97.5107 20.9648M44.2179 14.7794L46.2244 21.5014M77.9842 4.79333L79.9912 11.5153M49.8706 46.0268L56.6239 44.0296M66.7538 41.0338L73.507 39.0366M83.6373 36.0408L90.3905 34.0435M52.8804 56.1097L59.6337 54.1125M69.764 51.1167L76.5171 49.1195M86.6468 46.1236L93.3999 44.1265M55.8902 66.1927L62.6435 64.1954M72.7734 61.1996L79.5265 59.2024M89.6569 56.2066L96.41 54.2094M59.5753 76.0759L98.7444 64.4921C102.526 63.3735 104.418 62.8142 105.644 61.6543C106.722 60.6342 107.448 59.3002 107.718 57.844C108.025 56.1885 107.463 54.306 106.339 50.5413L96.7082 18.276C95.5838 14.5113 95.0223 12.629 93.8569 11.4088C92.8321 10.3354 91.4918 9.61266 90.0289 9.34397C88.3654 9.03853 86.4747 9.59789 82.692 10.7164L43.5231 22.3002C39.7409 23.4187 37.8498 23.978 36.6239 25.1379C35.5455 26.1581 34.8194 27.492 34.5495 28.9484C34.2426 30.6039 34.8045 32.4862 35.9283 36.2509L45.5596 68.5163C46.6833 72.281 47.2453 74.1636 48.4105 75.3832C49.4355 76.4566 50.7756 77.1798 52.2387 77.4482C53.902 77.754 55.7931 77.1944 59.5753 76.0759Z" stroke="#008D30" stroke-width="6.58333" stroke-linecap="round"/>
</svg>
