<svg width="100" height="100" viewBox="0 0 100 100" fill="none" xmlns="http://www.w3.org/2000/svg">
<g clip-path="url(#clip0_3_7)">
<path fill-rule="evenodd" clip-rule="evenodd" d="M18.1714 94.6429C18.1714 93.2221 18.7358 91.8594 19.7405 90.8548C20.7452 89.8501 22.1078 89.2857 23.5286 89.2857H48.5286C49.9494 89.2857 51.312 89.8501 52.3166 90.8548C53.3213 91.8594 53.8857 93.2221 53.8857 94.6429C53.8857 96.0637 53.3213 97.4263 52.3166 98.4309C51.312 99.4356 49.9494 100 48.5286 100H23.5286C22.1078 100 20.7452 99.4356 19.7405 98.4309C18.7358 97.4263 18.1714 96.0637 18.1714 94.6429Z" fill="#4147D5"/>
<path fill-rule="evenodd" clip-rule="evenodd" d="M64.4 57.4071C61.5429 61.1357 57.9714 64.2857 53.8857 66.65V75C53.8857 75.938 53.701 76.8668 53.342 77.7335C52.983 78.6001 52.4569 79.3875 51.7936 80.0508C51.1303 80.714 50.3429 81.2402 49.4763 81.5991C48.6097 81.9581 47.6809 82.1429 46.7429 82.1429H25.3143C23.4199 82.1429 21.6031 81.3903 20.2635 80.0508C18.924 78.7112 18.1714 76.8944 18.1714 75V66.65C13.7257 64.0797 9.88654 60.581 6.91574 56.3923C3.94494 52.2036 1.91238 47.4235 0.956657 42.3779C0.000933349 37.3324 0.144528 32.1401 1.37765 27.1551C2.61077 22.1701 4.90441 17.5097 8.10217 13.4916C11.2999 9.47348 15.3266 6.19224 19.9076 3.87161C24.4886 1.55097 29.5161 0.24553 34.6474 0.0442952C39.7787 -0.156939 44.8931 0.750769 49.6418 2.70552C54.3904 4.66027 58.6617 7.6161 62.1643 11.3714C61.7527 13.1348 60.8306 14.7379 59.5132 15.9803C58.1958 17.2227 56.5416 18.0494 54.7571 18.3571C39.9571 20.9286 39.9571 42.1786 54.7571 44.75C58.45 45.3929 61.4 48.2143 62.2 51.8786L62.3357 52.5071C62.7429 54.3929 63.4643 56.0286 64.4071 57.4071H64.4Z" fill="#4C9CFF"/>
<path fill-rule="evenodd" clip-rule="evenodd" d="M81.0929 12.2143C79.7357 6.25714 71.2286 6.28571 69.9214 12.2643L69.8714 12.5L69.7643 12.9643C69.0296 16.2466 67.3378 19.2372 64.9029 21.5576C62.468 23.878 59.3995 25.4241 56.0857 26C49.8714 27.0857 49.8714 36.0143 56.0857 37.0929C59.4157 37.6714 62.4976 39.2294 64.9378 41.5679C67.3781 43.9063 69.0659 46.9191 69.7857 50.2214L69.9214 50.8429C71.2286 56.8214 79.7357 56.8571 81.0929 50.8929L81.2571 50.1643C82.0081 46.8762 83.7139 43.8834 86.1602 41.5616C88.6066 39.2398 91.6844 37.6926 95.0071 37.1143C101.243 36.0286 101.243 27.0857 95.0071 26C91.6061 25.4098 88.4631 23.8045 85.9912 21.3951C83.5193 18.9857 81.8342 15.8848 81.1571 12.5L81.0929 12.2143Z" fill="#4147D5"/>
</g>
<defs>
<clipPath id="clip0_3_7">
<rect width="100" height="100" fill="white"/>
</clipPath>
</defs>
</svg>
