<svg width="418" height="498" viewBox="0 0 418 498" fill="none" xmlns="http://www.w3.org/2000/svg">
<path d="M59.4593 433.636C59.4593 437.019 58.7454 440.119 57.3176 442.938C55.8898 445.719 53.8797 448.05 51.2871 449.929C48.7322 451.808 45.7827 453.048 42.4387 453.65V460.979H33.2521V453.65C29.9456 453.048 26.9962 451.808 24.4036 449.929C21.8487 448.05 19.8573 445.701 18.4295 442.882C17.0017 440.063 16.2878 436.981 16.2878 433.636C16.2878 429.765 17.2084 426.288 19.0495 423.206C20.9281 420.087 23.5019 417.643 26.7707 415.877C30.0771 414.111 33.7781 413.227 37.8736 413.227C41.969 413.227 45.6512 414.111 48.92 415.877C52.1889 417.643 54.7626 420.087 56.6413 423.206C58.5199 426.288 59.4593 429.765 59.4593 433.636ZM42.0442 445.644C44.5616 444.855 46.5529 443.408 48.0183 441.303C49.4836 439.161 50.2163 436.605 50.2163 433.636C50.2163 431.193 49.6715 429.013 48.5819 427.096C47.5298 425.179 46.0645 423.695 44.1858 422.642C42.3072 421.552 40.2031 421.007 37.8736 421.007C35.544 421.007 33.4399 421.552 31.5613 422.642C29.6826 423.695 28.1985 425.179 27.1089 427.096C26.0568 429.013 25.5308 431.193 25.5308 433.636C25.5308 436.605 26.2447 439.142 27.6725 441.247C29.1378 443.352 31.1104 444.817 33.5902 445.644V437.526H42.0442V445.644ZM96.248 423.037V453.368H87.9067V449.76C86.742 451.075 85.3518 452.09 83.7361 452.804C82.1205 453.481 80.3733 453.819 78.4947 453.819C74.512 453.819 71.3558 452.673 69.0263 450.38C66.6968 448.087 65.532 444.686 65.532 440.176V423.037H74.3241V438.879C74.3241 443.765 76.3718 446.208 80.4673 446.208C82.5714 446.208 84.2622 445.532 85.5396 444.178C86.8171 442.788 87.4559 440.739 87.4559 438.033V423.037H96.248ZM135.166 423.037V453.368H126.768V449.873C124.589 452.503 121.433 453.819 117.3 453.819C114.444 453.819 111.852 453.18 109.522 451.902C107.23 450.624 105.427 448.801 104.112 446.434C102.796 444.066 102.139 441.322 102.139 438.202C102.139 435.083 102.796 432.339 104.112 429.971C105.427 427.603 107.23 425.781 109.522 424.503C111.852 423.225 114.444 422.586 117.3 422.586C121.17 422.586 124.194 423.807 126.374 426.25V423.037H135.166ZM118.821 446.603C121.038 446.603 122.879 445.851 124.345 444.348C125.81 442.807 126.543 440.758 126.543 438.202C126.543 435.647 125.81 433.617 124.345 432.114C122.879 430.573 121.038 429.802 118.821 429.802C116.567 429.802 114.707 430.573 113.242 432.114C111.776 433.617 111.044 435.647 111.044 438.202C111.044 440.758 111.776 442.807 113.242 444.348C114.707 445.851 116.567 446.603 118.821 446.603ZM161.735 422.586C165.492 422.586 168.517 423.713 170.809 425.969C173.139 428.224 174.303 431.569 174.303 436.004V453.368H165.511V437.357C165.511 434.951 164.985 433.166 163.933 432.001C162.881 430.798 161.359 430.197 159.368 430.197C157.151 430.197 155.385 430.892 154.07 432.283C152.755 433.636 152.098 435.665 152.098 438.372V453.368H143.306V423.037H151.703V426.589C152.868 425.311 154.314 424.334 156.043 423.657C157.771 422.943 159.669 422.586 161.735 422.586ZM200.533 451.902C199.669 452.541 198.598 453.03 197.321 453.368C196.081 453.669 194.785 453.819 193.432 453.819C189.787 453.819 186.988 452.898 185.034 451.057C183.081 449.215 182.104 446.509 182.104 442.938V416.328H190.896V423.713H198.392V430.479H190.896V442.825C190.896 444.103 191.215 445.099 191.854 445.813C192.493 446.49 193.413 446.828 194.616 446.828C195.968 446.828 197.171 446.452 198.223 445.701L200.533 451.902ZM218.992 453.819C215.798 453.819 212.924 453.161 210.369 451.846C207.851 450.493 205.879 448.632 204.451 446.264C203.023 443.897 202.309 441.209 202.309 438.202C202.309 435.196 203.023 432.508 204.451 430.14C205.879 427.773 207.851 425.931 210.369 424.616C212.924 423.262 215.798 422.586 218.992 422.586C222.185 422.586 225.041 423.262 227.558 424.616C230.076 425.931 232.048 427.773 233.476 430.14C234.904 432.508 235.618 435.196 235.618 438.202C235.618 441.209 234.904 443.897 233.476 446.264C232.048 448.632 230.076 450.493 227.558 451.846C225.041 453.161 222.185 453.819 218.992 453.819ZM218.992 446.603C221.246 446.603 223.087 445.851 224.515 444.348C225.98 442.807 226.713 440.758 226.713 438.202C226.713 435.647 225.98 433.617 224.515 432.114C223.087 430.573 221.246 429.802 218.992 429.802C216.737 429.802 214.877 430.573 213.412 432.114C211.947 433.617 211.214 435.647 211.214 438.202C211.214 440.758 211.947 442.807 213.412 444.348C214.877 445.851 216.737 446.603 218.992 446.603ZM258.075 413.904H275.997C280.281 413.904 284.057 414.731 287.326 416.384C290.632 418.001 293.187 420.293 294.991 423.262C296.832 426.232 297.752 429.689 297.752 433.636C297.752 437.582 296.832 441.04 294.991 444.009C293.187 446.979 290.632 449.29 287.326 450.944C284.057 452.56 280.281 453.368 275.997 453.368H258.075V413.904ZM275.546 445.87C279.492 445.87 282.629 444.78 284.959 442.6C287.326 440.382 288.509 437.394 288.509 433.636C288.509 429.877 287.326 426.908 284.959 424.728C282.629 422.511 279.492 421.402 275.546 421.402H267.205V445.87H275.546ZM334.564 423.037V453.368H326.223V449.76C325.058 451.075 323.668 452.09 322.052 452.804C320.437 453.481 318.69 453.819 316.811 453.819C312.828 453.819 309.672 452.673 307.343 450.38C305.013 448.087 303.848 444.686 303.848 440.176V423.037H312.64V438.879C312.64 443.765 314.688 446.208 318.784 446.208C320.888 446.208 322.579 445.532 323.856 444.178C325.134 442.788 325.772 440.739 325.772 438.033V423.037H334.564ZM351.108 427.04C352.16 425.574 353.569 424.465 355.335 423.713C357.139 422.962 359.205 422.586 361.535 422.586V430.704C360.558 430.629 359.9 430.592 359.562 430.592C357.045 430.592 355.072 431.306 353.644 432.734C352.217 434.125 351.503 436.229 351.503 439.048V453.368H342.711V423.037H351.108V427.04ZM397.26 423.037V453.368H388.862V449.873C386.683 452.503 383.527 453.819 379.394 453.819C376.538 453.819 373.946 453.18 371.616 451.902C369.324 450.624 367.521 448.801 366.206 446.434C364.89 444.066 364.233 441.322 364.233 438.202C364.233 435.083 364.89 432.339 366.206 429.971C367.521 427.603 369.324 425.781 371.616 424.503C373.946 423.225 376.538 422.586 379.394 422.586C383.264 422.586 386.288 423.807 388.468 426.25V423.037H397.26ZM380.915 446.603C383.132 446.603 384.973 445.851 386.439 444.348C387.904 442.807 388.637 440.758 388.637 438.202C388.637 435.647 387.904 433.617 386.439 432.114C384.973 430.573 383.132 429.802 380.915 429.802C378.661 429.802 376.801 430.573 375.336 432.114C373.87 433.617 373.138 435.647 373.138 438.202C373.138 440.758 373.87 442.807 375.336 444.348C376.801 445.851 378.661 446.603 380.915 446.603Z" fill="black"/>
<path d="M54.2836 481.625H58.1066V490.953H54.9552V489.868C53.6981 490.798 52.0792 491.263 50.0989 491.263C48.4285 491.263 46.8958 490.901 45.5009 490.178C44.106 489.454 42.9952 488.404 42.1686 487.025C41.342 485.63 40.9287 483.976 40.9287 482.064C40.9287 480.22 41.3507 478.585 42.1945 477.155C43.0556 475.707 44.2438 474.58 45.7592 473.769C47.2746 472.959 48.9794 472.555 50.8738 472.555C52.4582 472.555 53.8961 472.823 55.1877 473.356C56.4792 473.889 57.5642 474.664 58.4424 475.682L55.756 478.162C54.4644 476.802 52.9058 476.121 51.0805 476.121C49.9267 476.121 48.9019 476.37 48.0065 476.87C47.1111 477.352 46.4137 478.042 45.9142 478.937C45.4147 479.832 45.1651 480.866 45.1651 482.038C45.1651 483.262 45.4062 484.303 45.8884 485.165C46.3878 486.027 47.0508 486.68 47.8774 487.129C48.704 487.558 49.6081 487.775 50.5897 487.775C52.0534 487.775 53.2848 487.361 54.2836 486.534V481.625ZM68.71 487.93C69.4333 487.93 70.0706 487.826 70.6215 487.62C71.1898 487.396 71.7151 487.051 72.1972 486.586L74.3412 488.912C73.0325 490.41 71.121 491.16 68.6066 491.16C67.0396 491.16 65.6534 490.859 64.4478 490.255C63.2424 489.635 62.3125 488.782 61.658 487.697C61.0037 486.612 60.6764 485.381 60.6764 484.002C60.6764 482.642 60.9951 481.418 61.6322 480.333C62.2866 479.231 63.1736 478.378 64.2928 477.775C65.4294 477.154 66.7038 476.844 68.1159 476.844C69.4419 476.844 70.6473 477.129 71.7323 477.697C72.8172 478.249 73.6783 479.057 74.3154 480.126C74.9699 481.176 75.297 482.426 75.297 483.873L65.0161 485.862C65.3089 486.551 65.7652 487.067 66.3851 487.413C67.0225 487.758 67.7974 487.93 68.71 487.93ZM68.1159 479.894C67.1 479.894 66.2734 480.22 65.636 480.875C64.9989 481.531 64.6631 482.435 64.6286 483.589L71.3964 482.271C71.2072 481.547 70.8197 480.969 70.234 480.539C69.6486 480.11 68.9425 479.894 68.1159 479.894ZM81.8547 478.886C82.3368 478.214 82.9826 477.707 83.792 477.361C84.6186 477.016 85.5657 476.844 86.6335 476.844V480.565C86.1857 480.53 85.8844 480.514 85.7294 480.514C84.5754 480.514 83.6713 480.84 83.0171 481.496C82.3626 482.132 82.0355 483.098 82.0355 484.39V490.953H78.0058V477.051H81.8547V478.886ZM95.9037 487.93C96.627 487.93 97.2641 487.826 97.8152 487.62C98.3835 487.396 98.9088 487.051 99.3909 486.586L101.535 488.912C100.226 490.41 98.3147 491.16 95.8004 491.16C94.2333 491.16 92.8469 490.859 91.6415 490.255C90.4361 489.635 89.5062 488.782 88.8517 487.697C88.1972 486.612 87.8701 485.381 87.8701 484.002C87.8701 482.642 88.1888 481.418 88.8259 480.333C89.4803 479.231 90.3671 478.378 91.4865 477.775C92.6231 477.154 93.8975 476.844 95.3096 476.844C96.6357 476.844 97.8411 477.129 98.926 477.697C100.011 478.249 100.872 479.057 101.509 480.126C102.164 481.176 102.491 482.426 102.491 483.873L92.2098 485.862C92.5026 486.551 92.9589 487.067 93.5789 487.413C94.216 487.758 94.9909 487.93 95.9037 487.93ZM95.3096 479.894C94.2934 479.894 93.4668 480.22 92.8297 480.875C92.1926 481.531 91.8568 482.435 91.8223 483.589L98.5902 482.271C98.4007 481.547 98.0132 480.969 97.4277 480.539C96.8423 480.11 96.1362 479.894 95.3096 479.894ZM113.646 476.844C115.368 476.844 116.755 477.361 117.805 478.395C118.873 479.428 119.407 480.962 119.407 482.994V490.953H115.377V483.614C115.377 482.513 115.136 481.693 114.654 481.16C114.171 480.608 113.474 480.333 112.561 480.333C111.545 480.333 110.736 480.652 110.133 481.289C109.53 481.909 109.229 482.839 109.229 484.08V490.953H105.199V477.051H109.048V478.679C109.582 478.094 110.245 477.645 111.037 477.335C111.829 477.009 112.699 476.844 113.646 476.844ZM129.927 491.16C128.446 491.16 127.111 490.859 125.923 490.255C124.752 489.635 123.831 488.782 123.159 487.697C122.505 486.612 122.178 485.381 122.178 484.002C122.178 482.623 122.505 481.392 123.159 480.307C123.831 479.222 124.752 478.378 125.923 477.775C127.111 477.154 128.446 476.844 129.927 476.844C131.391 476.844 132.665 477.154 133.75 477.775C134.852 478.378 135.653 479.248 136.152 480.384L133.027 482.064C132.304 480.788 131.262 480.152 129.901 480.152C128.851 480.152 127.981 480.497 127.292 481.185C126.603 481.874 126.259 482.813 126.259 484.002C126.259 485.191 126.603 486.13 127.292 486.819C127.981 487.507 128.851 487.852 129.901 487.852C131.279 487.852 132.321 487.215 133.027 485.94L136.152 487.645C135.653 488.747 134.852 489.609 133.75 490.229C132.665 490.849 131.391 491.16 129.927 491.16ZM138.473 477.051H142.502V490.953H138.473V477.051ZM140.487 475.113C139.747 475.113 139.144 474.897 138.679 474.467C138.214 474.037 137.982 473.502 137.982 472.865C137.982 472.229 138.214 471.693 138.679 471.263C139.144 470.833 139.747 470.617 140.487 470.617C141.228 470.617 141.831 470.824 142.296 471.237C142.761 471.651 142.993 472.167 142.993 472.788C142.993 473.459 142.761 474.018 142.296 474.467C141.831 474.897 141.228 475.113 140.487 475.113ZM160.346 477.051V490.953H156.497V489.351C155.499 490.556 154.052 491.16 152.158 491.16C150.849 491.16 149.661 490.866 148.593 490.281C147.542 489.696 146.716 488.86 146.113 487.775C145.51 486.689 145.209 485.433 145.209 484.002C145.209 482.571 145.51 481.315 146.113 480.229C146.716 479.144 147.542 478.308 148.593 477.723C149.661 477.138 150.849 476.844 152.158 476.844C153.931 476.844 155.318 477.403 156.316 478.524V477.051H160.346ZM152.855 487.852C153.871 487.852 154.715 487.507 155.387 486.819C156.058 486.111 156.394 485.174 156.394 484.002C156.394 482.83 156.058 481.9 155.387 481.211C154.715 480.504 153.871 480.152 152.855 480.152C151.822 480.152 150.969 480.504 150.298 481.211C149.626 481.9 149.29 482.83 149.29 484.002C149.29 485.174 149.626 486.111 150.298 486.819C150.969 487.507 151.822 487.852 152.855 487.852ZM178.233 471.78V490.953H174.384V489.351C173.385 490.556 171.938 491.16 170.044 491.16C168.735 491.16 167.547 490.866 166.479 490.281C165.429 489.696 164.602 488.86 163.999 487.775C163.397 486.689 163.095 485.433 163.095 484.002C163.095 482.571 163.397 481.315 163.999 480.229C164.602 479.144 165.429 478.308 166.479 477.723C167.547 477.138 168.735 476.844 170.044 476.844C171.818 476.844 173.204 477.403 174.203 478.524V471.78H178.233ZM170.741 487.852C171.758 487.852 172.601 487.507 173.273 486.819C173.945 486.111 174.28 485.174 174.28 484.002C174.28 482.83 173.945 481.9 173.273 481.211C172.601 480.504 171.758 480.152 170.741 480.152C169.708 480.152 168.856 480.504 168.184 481.211C167.512 481.9 167.177 482.83 167.177 484.002C167.177 485.174 167.512 486.111 168.184 486.819C168.856 487.507 169.708 487.852 170.741 487.852ZM188.575 491.16C187.111 491.16 185.794 490.859 184.623 490.255C183.469 489.635 182.565 488.782 181.91 487.697C181.256 486.612 180.929 485.381 180.929 484.002C180.929 482.623 181.256 481.392 181.91 480.307C182.565 479.222 183.469 478.378 184.623 477.775C185.794 477.154 187.111 476.844 188.575 476.844C190.039 476.844 191.348 477.154 192.501 477.775C193.655 478.378 194.559 479.222 195.214 480.307C195.868 481.392 196.195 482.623 196.195 484.002C196.195 485.381 195.868 486.612 195.214 487.697C194.559 488.782 193.655 489.635 192.501 490.255C191.348 490.859 190.039 491.16 188.575 491.16ZM188.575 487.852C189.608 487.852 190.452 487.507 191.106 486.819C191.778 486.111 192.114 485.174 192.114 484.002C192.114 482.83 191.778 481.9 191.106 481.211C190.452 480.504 189.608 480.152 188.575 480.152C187.542 480.152 186.689 480.504 186.018 481.211C185.346 481.9 185.01 482.83 185.01 484.002C185.01 485.174 185.346 486.111 186.018 486.819C186.689 487.507 187.542 487.852 188.575 487.852ZM202.738 478.886C203.22 478.214 203.866 477.707 204.675 477.361C205.502 477.016 206.449 476.844 207.517 476.844V480.565C207.069 480.53 206.767 480.514 206.612 480.514C205.459 480.514 204.555 480.84 203.9 481.496C203.246 482.132 202.919 483.098 202.919 484.39V490.953H198.889V477.051H202.738V478.886ZM231.485 471.78V490.953H227.636V489.351C226.637 490.556 225.19 491.16 223.296 491.16C221.987 491.16 220.799 490.866 219.731 490.281C218.681 489.696 217.854 488.86 217.252 487.775C216.649 486.689 216.348 485.433 216.348 484.002C216.348 482.571 216.649 481.315 217.252 480.229C217.854 479.144 218.681 478.308 219.731 477.723C220.799 477.138 221.987 476.844 223.296 476.844C225.07 476.844 226.456 477.403 227.455 478.524V471.78H231.485ZM223.994 487.852C225.01 487.852 225.854 487.507 226.525 486.819C227.197 486.111 227.533 485.174 227.533 484.002C227.533 482.83 227.197 481.9 226.525 481.211C225.854 480.504 225.01 480.152 223.994 480.152C222.96 480.152 222.108 480.504 221.436 481.211C220.765 481.9 220.429 482.83 220.429 484.002C220.429 485.174 220.765 486.111 221.436 486.819C222.108 487.507 222.96 487.852 223.994 487.852ZM242.214 487.93C242.938 487.93 243.574 487.826 244.126 487.62C244.694 487.396 245.22 487.051 245.702 486.586L247.846 488.912C246.538 490.41 244.626 491.16 242.111 491.16C240.545 491.16 239.157 490.859 237.952 490.255C236.748 489.635 235.818 488.782 235.162 487.697C234.508 486.612 234.181 485.381 234.181 484.002C234.181 482.642 234.5 481.418 235.137 480.333C235.792 479.231 236.677 478.378 237.797 477.775C238.934 477.154 240.209 476.844 241.62 476.844C242.947 476.844 244.152 477.129 245.237 477.697C246.322 478.249 247.184 479.057 247.82 480.126C248.475 481.176 248.802 482.426 248.802 483.873L238.521 485.862C238.814 486.551 239.27 487.067 239.89 487.413C240.526 487.758 241.301 487.93 242.214 487.93ZM241.62 479.894C240.604 479.894 239.777 480.22 239.141 480.875C238.504 481.531 238.168 482.435 238.133 483.589L244.901 482.271C244.711 481.547 244.323 480.969 243.739 480.539C243.154 480.11 242.447 479.894 241.62 479.894ZM265.543 491.16C264.061 491.16 262.727 490.859 261.539 490.255C260.367 489.635 259.446 488.782 258.775 487.697C258.12 486.612 257.793 485.381 257.793 484.002C257.793 482.623 258.12 481.392 258.775 480.307C259.446 479.222 260.367 478.378 261.539 477.775C262.727 477.154 264.061 476.844 265.543 476.844C267.006 476.844 268.281 477.154 269.366 477.775C270.467 478.378 271.268 479.248 271.768 480.384L268.642 482.064C267.919 480.788 266.876 480.152 265.517 480.152C264.465 480.152 263.596 480.497 262.908 481.185C262.217 481.874 261.875 482.813 261.875 484.002C261.875 485.191 262.217 486.13 262.908 486.819C263.596 487.507 264.465 487.852 265.517 487.852C266.893 487.852 267.936 487.215 268.642 485.94L271.768 487.645C271.268 488.747 270.467 489.609 269.366 490.229C268.281 490.849 267.006 491.16 265.543 491.16ZM280.525 491.16C279.06 491.16 277.742 490.859 276.573 490.255C275.417 489.635 274.513 488.782 273.86 487.697C273.205 486.612 272.879 485.381 272.879 484.002C272.879 482.623 273.205 481.392 273.86 480.307C274.513 479.222 275.417 478.378 276.573 477.775C277.742 477.154 279.06 476.844 280.525 476.844C281.988 476.844 283.296 477.154 284.451 477.775C285.604 478.378 286.508 479.222 287.164 480.307C287.816 481.392 288.145 482.623 288.145 484.002C288.145 485.381 287.816 486.612 287.164 487.697C286.508 488.782 285.604 489.635 284.451 490.255C283.296 490.859 281.988 491.16 280.525 491.16ZM280.525 487.852C281.558 487.852 282.401 487.507 283.056 486.819C283.728 486.111 284.064 485.174 284.064 484.002C284.064 482.83 283.728 481.9 283.056 481.211C282.401 480.504 281.558 480.152 280.525 480.152C279.492 480.152 278.639 480.504 277.968 481.211C277.296 481.9 276.96 482.83 276.96 484.002C276.96 485.174 277.296 486.111 277.968 486.819C278.639 487.507 279.492 487.852 280.525 487.852ZM308.637 476.844C310.374 476.844 311.753 477.361 312.77 478.395C313.803 479.412 314.319 480.944 314.319 482.994V490.953H310.29V483.614C310.29 482.513 310.057 481.693 309.592 481.16C309.144 480.608 308.498 480.333 307.655 480.333C306.706 480.333 305.957 480.643 305.408 481.263C304.856 481.867 304.581 482.771 304.581 483.976V490.953H300.551V483.614C300.551 481.427 299.673 480.333 297.917 480.333C296.987 480.333 296.245 480.643 295.695 481.263C295.143 481.867 294.868 482.771 294.868 483.976V490.953H290.839V477.051H294.688V478.653C295.204 478.068 295.831 477.62 296.573 477.31C297.329 476.999 298.156 476.844 299.053 476.844C300.035 476.844 300.92 477.042 301.714 477.439C302.505 477.817 303.142 478.378 303.625 479.118C304.194 478.395 304.907 477.836 305.769 477.439C306.648 477.042 307.603 476.844 308.637 476.844ZM326.146 476.844C327.437 476.844 328.607 477.145 329.659 477.749C330.725 478.334 331.561 479.17 332.164 480.255C332.765 481.324 333.068 482.571 333.068 484.002C333.068 485.433 332.765 486.689 332.164 487.775C331.561 488.843 330.725 489.677 329.659 490.281C328.607 490.866 327.437 491.16 326.146 491.16C324.37 491.16 322.975 490.6 321.961 489.48V495.966H317.931V477.051H321.78V478.653C322.778 477.448 324.234 476.844 326.146 476.844ZM325.448 487.852C326.481 487.852 327.324 487.507 327.98 486.819C328.651 486.111 328.987 485.174 328.987 484.002C328.987 482.83 328.651 481.9 327.98 481.211C327.324 480.504 326.481 480.152 325.448 480.152C324.415 480.152 323.562 480.504 322.891 481.211C322.236 481.9 321.909 482.83 321.909 484.002C321.909 485.174 322.236 486.111 322.891 486.819C323.562 487.507 324.415 487.852 325.448 487.852ZM339.613 478.886C340.097 478.214 340.743 477.707 341.551 477.361C342.377 477.016 343.326 476.844 344.392 476.844V480.565C343.946 480.53 343.643 480.514 343.488 480.514C342.335 480.514 341.431 480.84 340.776 481.496C340.123 482.132 339.794 483.098 339.794 484.39V490.953H335.764V477.051H339.613V478.886ZM360.767 477.051V490.953H356.918V489.351C355.92 490.556 354.473 491.16 352.578 491.16C351.27 491.16 350.082 490.866 349.013 490.281C347.964 489.696 347.137 488.86 346.534 487.775C345.93 486.689 345.63 485.433 345.63 484.002C345.63 482.571 345.93 481.315 346.534 480.229C347.137 479.144 347.964 478.308 349.013 477.723C350.082 477.138 351.27 476.844 352.578 476.844C354.351 476.844 355.739 477.403 356.737 478.524V477.051H360.767ZM353.276 487.852C354.293 487.852 355.136 487.507 355.807 486.819C356.479 486.111 356.815 485.174 356.815 484.002C356.815 482.83 356.479 481.9 355.807 481.211C355.136 480.504 354.293 480.152 353.276 480.152C352.242 480.152 351.39 480.504 350.718 481.211C350.047 481.9 349.711 482.83 349.711 484.002C349.711 485.174 350.047 486.111 350.718 486.819C351.39 487.507 352.242 487.852 353.276 487.852ZM369.174 491.16C368.018 491.16 366.891 491.021 365.79 490.746C364.686 490.453 363.808 490.091 363.155 489.661L364.498 486.767C365.118 487.164 365.867 487.49 366.746 487.749C367.624 487.991 368.483 488.11 369.329 488.11C371.034 488.11 371.886 487.688 371.886 486.844C371.886 486.447 371.654 486.163 371.189 485.992C370.724 485.82 370.007 485.672 369.045 485.552C367.908 485.381 366.969 485.181 366.229 484.958C365.487 484.735 364.841 484.338 364.292 483.769C363.756 483.201 363.491 482.391 363.491 481.341C363.491 480.462 363.74 479.687 364.24 479.015C364.757 478.327 365.496 477.791 366.461 477.413C367.443 477.035 368.596 476.844 369.923 476.844C370.904 476.844 371.877 476.957 372.842 477.18C373.823 477.387 374.631 477.681 375.27 478.059L373.927 480.927C372.703 480.239 371.369 479.894 369.923 479.894C369.061 479.894 368.415 480.013 367.986 480.255C367.553 480.497 367.34 480.807 367.34 481.185C367.34 481.615 367.572 481.918 368.037 482.09C368.502 482.261 369.242 482.426 370.259 482.581C371.395 482.771 372.325 482.978 373.048 483.201C373.772 483.408 374.399 483.795 374.934 484.364C375.467 484.932 375.735 485.724 375.735 486.741C375.735 487.603 375.477 488.369 374.96 489.041C374.443 489.713 373.685 490.239 372.687 490.617C371.705 490.979 370.533 491.16 369.174 491.16Z" fill="black"/>
<path fill-rule="evenodd" clip-rule="evenodd" d="M5.79026 102.708C6.04662 94.9275 12.5596 88.8279 20.3374 89.0845L25.5811 89.2574C25.8422 89.2658 26.1027 89.2745 26.3621 89.2832C38.7601 89.6912 49.2371 90.0363 57.7692 91.2966C66.8389 92.6365 75.1176 95.1772 82.5211 100.895C89.9247 106.613 94.4774 113.981 98.0684 122.419C101.447 130.357 104.432 140.409 107.965 152.304L122.191 200.199C129.871 226.059 135.257 244.086 141.128 257.149C146.831 269.841 152.16 275.876 158.626 279.38C165.091 282.883 173.055 284.055 186.797 281.903C200.944 279.69 218.982 274.363 244.833 266.679L370.9 229.21C378.36 226.993 386.204 231.243 388.421 238.706C390.637 246.169 386.387 254.015 378.926 256.233L251.871 293.996C227.242 301.316 207.39 307.217 191.152 309.756C174.294 312.394 159.26 311.786 145.199 304.165C131.138 296.543 122.42 284.276 115.424 268.706C108.685 253.712 102.787 233.854 95.4698 209.217L81.173 161.083C77.3577 148.238 74.8128 139.745 72.1388 133.462C69.6068 127.512 67.4971 124.906 65.2993 123.209C63.1013 121.512 60.0471 120.129 53.6524 119.185C46.8991 118.187 38.041 117.874 24.6528 117.433L19.4093 117.26C11.6315 117.003 5.53408 110.488 5.79026 102.708Z" fill="#FFE600" stroke="#008D30" stroke-width="3.33333"/>
<path d="M199.187 343.963C214.107 339.528 229.795 348.034 234.228 362.957C238.661 377.881 230.16 393.575 215.24 398.01C200.32 402.443 184.632 393.939 180.199 379.016C175.766 364.092 184.267 348.398 199.187 343.963Z" fill="#FFE600" stroke="#008D30" stroke-width="3.33333"/>
<path d="M396.316 314.785C391.882 299.859 376.193 291.358 361.274 295.791C346.355 300.226 337.852 315.918 342.286 330.844C346.719 345.767 362.408 354.271 377.327 349.838C392.246 345.403 400.747 329.709 396.316 314.785Z" fill="#FFE600" stroke="#008D30" stroke-width="3.33333"/>
<path d="M123.818 131.918L328.705 71.0237M149.057 50.069L155.821 72.8414M262.882 16.2388L269.648 39.011M168.112 155.928L190.877 149.162M225.025 139.012L247.789 132.246M281.939 122.097L304.703 115.331M178.258 190.086L201.023 183.32M235.172 173.171L257.936 166.405M292.083 156.256L314.848 149.49M188.404 224.245L211.169 217.478M245.317 207.329L268.081 200.563M302.23 190.414L324.995 183.648M200.826 257.727L332.864 218.483C345.613 214.694 351.989 212.799 356.122 208.87C359.757 205.414 362.204 200.895 363.113 195.961C364.148 190.353 362.253 183.976 358.465 171.222L326 61.9148C322.21 49.1608 320.317 42.7841 316.388 38.6505C312.934 35.0139 308.416 32.5655 303.484 31.6552C297.877 30.6204 291.503 32.5154 278.752 36.3047L146.715 75.5478C133.965 79.3371 127.59 81.2318 123.458 85.1613C119.823 88.6175 117.375 93.1364 116.465 98.0701C115.431 103.679 117.325 110.055 121.113 122.809L153.58 232.116C157.368 244.87 159.262 251.248 163.19 255.38C166.645 259.016 171.163 261.466 176.095 262.376C181.702 263.411 188.076 261.516 200.826 257.727Z" stroke="#008D30" stroke-width="6.58333" stroke-linecap="round"/>
</svg>
