<svg width="500" height="501" viewBox="0 0 500 501" fill="none" xmlns="http://www.w3.org/2000/svg">
<path d="M383.044 180.733L399.16 173.584L385.954 162.072L383.044 180.733Z" fill="#FECFC4"/>
<path d="M240.657 263.258C224.177 227.63 200.668 224.844 179.106 229.811C179.09 229.811 179.074 229.814 179.059 229.82C179.044 229.826 179.031 229.835 179.019 229.847C179.008 229.858 178.999 229.871 178.993 229.886C178.987 229.901 178.984 229.917 178.984 229.933C178.437 230.558 177.828 231.126 177.168 231.63C159.233 246.413 154.627 255.987 150.022 313.304C149.817 314.869 149.206 316.352 148.249 317.608C147.293 318.861 146.024 319.844 144.57 320.456C112.456 330.876 86.8869 355.838 79.2528 363.835C77.9195 365.291 77.1931 367.109 79.2528 370.139C82.5238 374.984 87.9789 382.255 91.4913 387.347C93.9166 390.86 96.5832 391.101 98.7622 389.77L170.979 345.771C175.697 342.963 179.391 338.717 181.521 333.655L198.73 293.785C208.33 303.551 216.749 314.409 223.814 326.14C226.722 330.866 225.752 332.682 224.063 335.592C215.702 350.254 213.157 368.179 205.406 409.755C204.68 413.983 205.655 414.73 209.635 415.934C216.712 418.11 223.916 419.851 231.207 421.145C236.659 422.115 237.508 422.72 239.323 417.267C243.801 404.18 255.684 372.31 262.229 351.468C268.771 330.866 270.589 332.563 254.351 292.452C250.958 284.464 246.109 275.012 240.657 263.258ZM193.892 290.765C192.195 289.069 190.984 287.857 189.772 286.536C176.442 272.109 176.442 264.845 179.23 252.848C179.247 252.784 179.275 252.724 179.315 252.672C179.354 252.619 179.404 252.577 179.46 252.542C179.517 252.51 179.579 252.488 179.644 252.478C179.709 252.468 179.775 252.473 179.839 252.49C179.902 252.505 179.962 252.535 180.014 252.572C180.067 252.612 180.111 252.662 180.144 252.719C180.178 252.776 180.2 252.838 180.209 252.903C180.218 252.968 180.214 253.032 180.198 253.097C177.412 264.85 177.534 271.878 190.499 285.932C191.591 287.146 192.954 288.447 194.618 290.051C195.195 290.603 194.28 291.161 193.882 290.765H193.892Z" fill="#FECFC4"/>
<path d="M139.617 99.5087C140.31 99.6786 141.032 99.7023 141.735 99.5776C142.438 99.4533 143.108 99.1834 143.701 98.7854C144.294 98.3874 144.797 97.87 145.179 97.2665C145.561 96.6628 145.812 95.9862 145.918 95.28C146.062 93.8101 145.64 92.341 144.74 91.1706C143.839 90.0003 142.527 89.2167 141.07 88.9792C140.376 88.803 139.654 88.7714 138.948 88.8861C138.242 89.0005 137.567 89.259 136.965 89.6453C136.362 90.0314 135.846 90.5373 135.447 91.1311C135.049 91.7251 134.776 92.3947 134.647 93.0985C134.506 94.5982 134.941 96.0956 135.865 97.2862C136.788 98.4767 138.129 99.2714 139.617 99.5087Z" fill="#FECFC4"/>
<path d="M111.623 102.897C112.387 103.077 113.179 103.104 113.953 102.977C114.727 102.849 115.469 102.568 116.134 102.152C116.799 101.735 117.375 101.191 117.828 100.55C118.281 99.9095 118.603 99.1851 118.774 98.4192C118.837 96.8404 118.323 95.2929 117.328 94.0651C116.334 92.8373 114.927 92.0129 113.37 91.7458C111.812 91.4788 110.211 91.7873 108.864 92.6139C107.518 93.4402 106.518 94.7283 106.051 96.2377C105.97 97.8454 106.499 99.4244 107.532 100.659C108.565 101.893 110.026 102.692 111.623 102.897Z" fill="#FECFC4"/>
<path d="M199.456 166.92C211.249 164.301 220.62 152.96 223.692 147.408C228.951 137.916 222.891 135.623 224.662 131.536C225.826 128.847 229.281 130.67 231.448 132.625C232.913 133.948 235.204 135.048 235.204 130.929C235.204 125.954 236.052 120.143 240.657 119.902C242.353 119.902 243.808 121.961 244.885 124.991C253.127 112.752 240.525 96.6334 229.617 97.6036C221.498 98.3299 220.662 103.822 213.864 105.238C206.722 106.73 199.302 104.608 193.506 109.116C183.899 116.578 195.658 125.936 190.354 132.869C184.633 140.356 174.109 134.19 163.696 142.441C151.326 152.244 159.333 172.129 171.452 175.159C173.976 173.871 176.612 172.817 179.327 172.01C185.158 170.313 192.449 168.475 199.456 166.92Z" fill="#6153BD"/>
<path d="M218.118 451.328C216.421 453.873 215.21 454.965 213.513 450.965C211.817 446.965 209.285 441.264 207.698 437.878C206.111 434.493 207.946 425.64 205.638 422.608C201.76 429.396 197.762 431.456 197.762 436.182C197.762 440.908 203.7 450.965 207.337 460.781C211.212 471.323 214.486 482.231 219.332 480.534C224.18 478.716 223.56 459.328 224.424 444.906C221.754 446.403 219.567 448.632 218.118 451.328Z" fill="#6153BD"/>
<path d="M66.2805 405.28C63.3701 406.372 61.803 406.491 62.7656 402.25C63.7283 398.009 64.9472 391.952 65.7954 388.193C66.6436 384.434 73.0664 377.41 72.9445 373.654C65.5516 377.166 61.6736 377.047 58.8876 380.925C56.1016 384.803 55.0096 396.556 52.2211 406.735C49.1938 417.64 45.4352 428.063 50.5271 429.515C55.5021 430.971 66.2805 414.976 75.3673 403.827C72.2641 403.526 69.1354 404.026 66.2805 405.28Z" fill="#6153BD"/>
<path d="M66.522 191.76C66.7461 191.766 66.969 191.726 67.1775 191.643C67.3857 191.56 67.575 191.436 67.7337 191.277C67.8924 191.119 68.017 190.93 68.1003 190.722C68.1836 190.513 68.2239 190.291 68.2185 190.066C68.2132 189.606 68.0361 189.165 67.7225 188.829C67.4085 188.492 66.9804 188.285 66.522 188.248C66.2976 188.243 66.0747 188.283 65.8663 188.366C65.6581 188.449 65.4688 188.574 65.3103 188.733C65.1516 188.891 65.0268 189.081 64.9434 189.289C64.8601 189.497 64.82 189.72 64.8255 189.945C64.8071 190.178 64.8375 190.412 64.9148 190.632C64.9919 190.853 65.1143 191.055 65.2738 191.226C65.4335 191.397 65.6267 191.533 65.8417 191.625C66.0566 191.717 66.2882 191.763 66.522 191.76Z" fill="#6153BD"/>
<path d="M279.435 66.3407C279.074 67.9789 279.059 69.6747 279.392 71.3189C279.726 72.9629 280.4 74.5193 281.37 75.8882C282.34 77.2571 283.584 78.4083 285.024 79.268C286.467 80.1274 288.071 80.6766 289.735 80.8801C293.337 80.9908 296.852 79.765 299.606 77.4381C302.357 75.1113 304.15 71.8487 304.64 68.2784C295.024 67.4551 285.211 66.7262 279.435 66.3407Z" fill="#6153BD"/>
<path d="M443.149 359.353C442.933 359.308 442.712 359.306 442.495 359.348C442.281 359.393 442.075 359.48 441.893 359.604C441.712 359.729 441.56 359.888 441.44 360.074C441.324 360.261 441.246 360.47 441.212 360.686C441.152 361.132 441.251 361.584 441.498 361.962C441.741 362.341 442.112 362.619 442.545 362.746C442.761 362.801 442.985 362.808 443.204 362.768C443.423 362.729 443.632 362.641 443.814 362.517C443.998 362.39 444.152 362.226 444.266 362.037C444.383 361.845 444.455 361.634 444.483 361.413C444.545 361.189 444.56 360.955 444.525 360.726C444.49 360.497 444.406 360.276 444.281 360.082C444.154 359.888 443.988 359.721 443.794 359.597C443.597 359.47 443.378 359.388 443.149 359.353Z" fill="#6153BD"/>
<path d="M308.882 68.6441C308.508 70.3408 308.499 72.0975 308.852 73.7984C309.205 75.4994 309.914 77.1063 310.934 78.5137C311.951 79.9212 313.257 81.0973 314.762 81.9647C316.267 82.832 317.939 83.3711 319.667 83.5467C323.381 83.6962 327.02 82.4674 329.884 80.0968C332.747 77.726 334.632 74.3805 335.177 70.7037C333.296 70.5918 335.184 70.6316 308.882 68.6441Z" fill="#6153BD"/>
<path d="M448.846 360.696C448.629 360.634 448.403 360.622 448.179 360.659C447.958 360.694 447.746 360.778 447.562 360.908C447.376 361.035 447.221 361.201 447.107 361.395C446.995 361.589 446.925 361.806 446.906 362.03C446.843 362.477 446.943 362.93 447.189 363.308C447.433 363.686 447.806 363.965 448.239 364.089C448.455 364.154 448.682 364.166 448.905 364.131C449.127 364.097 449.338 364.01 449.525 363.883C449.711 363.756 449.866 363.589 449.978 363.393C450.092 363.199 450.159 362.98 450.179 362.756C450.234 362.532 450.241 362.301 450.204 362.074C450.164 361.848 450.082 361.632 449.955 361.44C449.831 361.246 449.669 361.082 449.478 360.952C449.286 360.826 449.072 360.739 448.846 360.696Z" fill="#6153BD"/>
<path d="M448.724 356.323C448.786 355.878 448.687 355.423 448.443 355.045C448.197 354.667 447.823 354.388 447.391 354.264C447.174 354.201 446.948 354.186 446.724 354.221C446.503 354.259 446.291 354.343 446.105 354.47C445.92 354.597 445.764 354.766 445.652 354.96C445.54 355.154 445.47 355.373 445.453 355.597C445.393 356.042 445.495 356.495 445.739 356.873C445.983 357.251 446.353 357.53 446.786 357.657C447.003 357.706 447.224 357.711 447.443 357.669C447.659 357.629 447.866 357.542 448.047 357.418C448.231 357.291 448.386 357.129 448.5 356.94C448.617 356.754 448.694 356.542 448.724 356.323Z" fill="#6153BD"/>
<path d="M443.03 354.99C443.09 354.545 442.99 354.092 442.746 353.714C442.5 353.336 442.13 353.057 441.699 352.93C441.483 352.886 441.261 352.883 441.045 352.925C440.829 352.97 440.625 353.057 440.443 353.182C440.261 353.306 440.107 353.465 439.99 353.652C439.871 353.838 439.794 354.047 439.759 354.264C439.699 354.709 439.799 355.162 440.045 355.54C440.289 355.918 440.659 356.196 441.092 356.323C441.309 356.373 441.53 356.378 441.749 356.336C441.965 356.296 442.172 356.209 442.356 356.084C442.537 355.958 442.692 355.796 442.809 355.607C442.923 355.42 443 355.209 443.03 354.99Z" fill="#6153BD"/>
<path d="M270.104 358.383L293.006 366.746C298.797 369.042 305.081 369.813 311.257 368.987C317.431 368.159 323.289 365.761 328.272 362.02L430.063 282.646C431.448 281.559 432.555 280.156 433.294 278.557C434.03 276.955 434.376 275.203 434.304 273.442C434.142 270.517 433.04 267.723 431.162 265.475C429.284 263.226 426.729 261.642 423.881 260.96L305.725 230.543" stroke="#120071" stroke-width="2.5" stroke-linecap="round" stroke-linejoin="round"/>
<path d="M191.215 329.421L212.302 337.177" stroke="#120071" stroke-width="2.5" stroke-linecap="round" stroke-linejoin="round"/>
<path d="M123.113 241.202L76.9446 263.5C74.7193 264.619 72.8883 266.39 71.697 268.577C70.5055 270.763 70.0105 273.263 70.2781 275.738C70.503 278.549 71.5224 281.238 73.2176 283.492C74.9131 285.743 77.2143 287.469 79.8525 288.462L138.381 310.033" stroke="#120071" stroke-width="2.5" stroke-linecap="round" stroke-linejoin="round"/>
<path d="M274.104 340.329L294.705 347.719C298.845 349.284 303.305 349.816 307.698 349.266C312.088 348.719 316.282 347.107 319.909 344.57L379.166 301.551" stroke="#120071" stroke-width="2.5" stroke-linecap="round" stroke-linejoin="round"/>
<path d="M197.882 313.183L212.302 318.272" stroke="#120071" stroke-width="2.5" stroke-linecap="round" stroke-linejoin="round"/>
<path d="M89.6682 274.527L142.381 293.31" stroke="#120071" stroke-width="2.5" stroke-linecap="round" stroke-linejoin="round"/>
<path d="M348.388 41.3764C390.924 44.1649 435.635 47.2096 465.325 49.3762C483.745 50.7169 488.337 59.5525 485.564 74.4601C476.186 124.862 448.965 257.44 444.12 275.738" stroke="#120071" stroke-width="2.5" stroke-linecap="round" stroke-linejoin="round"/>
<path d="M228.055 93.1213C233.03 70.5821 236.931 52.7766 237.508 50.5851C240.567 38.9909 247.323 35.5556 259.562 36.0432C262.592 36.1626 272.044 36.6476 272.044 36.6476" stroke="#120071" stroke-width="2.5" stroke-linecap="round" stroke-linejoin="round"/>
<path d="M349.236 55.1917L463.266 63.796C471.385 64.3979 475.251 66.5795 473.323 76.5195C465.271 118.061 448.883 201.561 440.848 242.294C439.868 247.269 436.6 247.893 432.485 246.898C400.322 239.11 356.142 228.357 313.608 218.292" stroke="#120071" stroke-width="2.5" stroke-linecap="round" stroke-linejoin="round"/>
<path d="M236.296 92.3945C240.294 74.2158 243.567 59.8082 244.657 55.7959C246.112 50.4652 248.781 47.9777 254.836 48.4055C259.313 48.7214 264.039 49.01 269.014 49.3757" stroke="#120071" stroke-width="2.5" stroke-linecap="round" stroke-linejoin="round"/>
<path d="M281.253 288.584L330.816 305.429" stroke="#120071" stroke-width="2.5" stroke-linecap="round" stroke-linejoin="round"/>
<path d="M259.199 259.865L334.814 283.616" stroke="#120071" stroke-width="2.5" stroke-linecap="round" stroke-linejoin="round"/>
<path d="M295.188 243.627L395.282 270.649L357.838 295.128" stroke="#120071" stroke-width="2.5" stroke-linecap="round" stroke-linejoin="round"/>
<path d="M238.841 243.868L250.109 237.204" stroke="#120071" stroke-width="2.5" stroke-linecap="round" stroke-linejoin="round"/>
<path d="M282.828 303.126L336.269 266.286" stroke="#120071" stroke-width="2.5" stroke-linecap="round" stroke-linejoin="round"/>
<path d="M268.651 275.738L291.554 260.714" stroke="#120071" stroke-width="2.5" stroke-linecap="round" stroke-linejoin="round"/>
<path d="M457.084 361.898C455.51 352.326 451.873 346.157 447.269 345.659C443.998 345.306 441.212 347.6 437.697 346.993C437.575 346.993 436.727 346.744 436.605 346.744C433.334 345.896 431.52 342.61 428.607 341.654C424.493 340.301 419.74 344.306 415.762 351.953C411.862 359.455 411.26 367.985 415.036 370.131C417.205 371.375 420.088 370.711 424.986 366.375C425.463 365.808 426.115 365.418 426.839 365.263C427.563 365.112 428.316 365.204 428.983 365.527L439.043 368.191C439.836 368.31 440.585 368.646 441.202 369.159C441.821 369.671 442.291 370.34 442.557 371.099C445.998 377.803 448.614 380.273 451.403 380.303C455.995 380.377 458.661 371.472 457.084 361.898Z" stroke="#120071" stroke-width="2.5" stroke-linecap="round" stroke-linejoin="round"/>
<path d="M426.307 356.082L425.7 359.838" stroke="#120071" stroke-width="2.5" stroke-linecap="round" stroke-linejoin="round"/>
<path d="M427.518 349.174L426.911 352.93" stroke="#120071" stroke-width="2.5" stroke-linecap="round" stroke-linejoin="round"/>
<path d="M428.122 354.87L431.637 355.719" stroke="#120071" stroke-width="2.5" stroke-linecap="round" stroke-linejoin="round"/>
<path d="M421.7 353.415L425.215 354.142" stroke="#120071" stroke-width="2.5" stroke-linecap="round" stroke-linejoin="round"/>
<path d="M330.331 76.0345C328.938 84.2656 316.757 89.7406 303.307 88.3948C290.098 87.074 280.768 79.6687 281.979 71.7933C283.191 63.9178 294.83 58.2961 308.033 59.311C321.61 60.3557 331.727 67.7834 330.331 76.0345Z" stroke="#120071" stroke-width="2.5" stroke-linecap="round" stroke-linejoin="round"/>
<path d="M327.06 66.9449L329.724 50.4652L316.274 60.8878" stroke="#120071" stroke-width="2.5" stroke-linecap="round" stroke-linejoin="round"/>
<path d="M299.795 59.555L290.462 47.7991L287.917 63.7962" stroke="#120071" stroke-width="2.5" stroke-linecap="round" stroke-linejoin="round"/>
<path d="M409.698 174.917C408.869 180.208 405.986 184.958 401.673 188.134C397.362 191.311 391.972 192.658 386.673 191.882C381.554 190.983 376.999 188.096 374.002 183.85C371.004 179.604 369.81 174.345 370.676 169.221C371.44 163.991 374.203 159.261 378.387 156.028C382.569 152.796 387.842 151.314 393.096 151.893C395.72 152.267 398.243 153.166 400.509 154.537C402.777 155.908 404.745 157.723 406.295 159.873C407.847 162.023 408.946 164.463 409.531 167.048C410.115 169.633 410.173 172.31 409.698 174.917Z" stroke="#120071" stroke-width="2.5" stroke-linecap="round" stroke-linejoin="round"/>
<path d="M118.629 96.6635L123.72 66.2185L149.652 65.129L145.68 92.6992" stroke="#120071" stroke-width="2.5" stroke-linecap="round" stroke-linejoin="round"/>
<path d="M411.887 131.172L367.776 126.197L352.144 203.753L415.17 215.148L428.135 153.105C421.7 144.381 418.187 139.533 411.887 131.172Z" stroke="#120071" stroke-width="2.5" stroke-linecap="round" stroke-linejoin="round"/>
<path d="M428.122 152.983L407.887 150.438L411.887 131.172" stroke="#120071" stroke-width="2.5" stroke-linecap="round" stroke-linejoin="round"/>
<path d="M327.18 23.3218L279.798 20.2921L266.117 107.663L334.461 116.267L345.368 46.5874C338.207 37.3787 334.209 32.2893 327.18 23.3218Z" stroke="#120071" stroke-width="2.5" stroke-linecap="round" stroke-linejoin="round"/>
<path d="M345.358 46.4655L323.787 44.7691L327.18 23.3219" stroke="#120071" stroke-width="2.5" stroke-linecap="round" stroke-linejoin="round"/>
<path d="M140.321 123.658L159.226 126.083L169.405 61.2515C162.738 52.7691 158.982 48.0429 152.438 39.6799L108.461 36.8939L95.7253 118.083L120.69 121.235" stroke="#120071" stroke-width="2.5" stroke-linecap="round" stroke-linejoin="round"/>
<path d="M169.283 61.1296L149.167 59.555L152.318 39.5605" stroke="#120071" stroke-width="2.5" stroke-linecap="round" stroke-linejoin="round"/>
<path d="M455.147 316.575L413.339 309.426L400.616 390.618L460.962 404.917L471.141 340.085C464.84 330.754 461.326 325.665 455.147 316.575Z" stroke="#120071" stroke-width="2.5" stroke-linecap="round" stroke-linejoin="round"/>
<path d="M471.141 340.085L451.995 336.572L455.147 316.575" stroke="#120071" stroke-width="2.5" stroke-linecap="round" stroke-linejoin="round"/>
<path d="M361.96 77.9722L402.553 81.2458" stroke="#120071" stroke-width="2.5" stroke-linecap="round" stroke-linejoin="round"/>
<path d="M361.112 89.002L428.122 94.3328" stroke="#120071" stroke-width="2.5" stroke-linecap="round" stroke-linejoin="round"/>
<path d="M377.228 101.24L404.372 103.3" stroke="#120071" stroke-width="2.5" stroke-linecap="round" stroke-linejoin="round"/>
<path d="M72.0965 144.623L39.7416 140.745L35.2641 198.547L79.9794 206.666L84.3325 161.945C79.6062 155.165 76.9446 151.408 72.0965 144.623Z" stroke="#120071" stroke-width="2.5" stroke-linecap="round" stroke-linejoin="round"/>
<path d="M84.335 161.831L70.0368 160.012L72.0965 144.622" stroke="#120071" stroke-width="2.5" stroke-linecap="round" stroke-linejoin="round"/>
<path d="M61.1913 182.552L50.0423 174.796L47.1344 159.769L58.4028 168.98L61.1913 182.552Z" stroke="#120071" stroke-width="2.5" stroke-linecap="round" stroke-linejoin="round"/>
<path d="M52.9504 183.641L61.1915 182.552L65.7959 176.371" stroke="#120071" stroke-width="2.5" stroke-linecap="round" stroke-linejoin="round"/>
<path d="M65.9449 189.325L61.1913 182.552" stroke="#120071" stroke-width="2.5" stroke-linecap="round" stroke-linejoin="round"/>
<path d="M135.958 214.183C157.649 183.766 164.923 176.985 179.34 172.254C197.591 166.526 216.467 163.027 235.558 161.834C252.403 161.102 259.268 174.343 263.793 180.987C268.358 187.679 279.183 203.283 285.847 215.158" stroke="#120071" stroke-width="2.5" stroke-linecap="round" stroke-linejoin="round"/>
<path d="M238.356 207.272C246.231 217.936 254.326 228.501 259.321 234.416C270.41 247.552 282.437 246.634 289.735 237.567C299.514 225.419 313.986 207.523 317.245 201.698C322.115 192.991 301.034 173.37 294.825 179.28C290.596 183.298 276.285 199.638 276.285 199.638" stroke="#120071" stroke-width="2.5" stroke-linecap="round" stroke-linejoin="round"/>
<path d="M181.4 212.362C163.587 231.994 158.729 238.854 147.712 241.446C136.068 244.182 128.433 236.6 125.779 225.208C122.249 210.064 115.911 183.89 115.357 177.099C114.421 165.595 141.052 154.316 144.077 162.314C146.139 167.766 153.045 191.278 153.045 191.278" stroke="#120071" stroke-width="2.5" stroke-linecap="round" stroke-linejoin="round"/>
<path d="M178.609 180.37C177.275 187.4 178.507 192.606 179.82 200.365C181.175 207.717 181.785 215.188 181.639 222.663C181.769 224.41 181.434 226.16 180.667 227.735C179.901 229.311 178.731 230.655 177.275 231.63C159.288 246.351 154.821 255.992 150.132 313.304C149.934 314.872 149.325 316.357 148.368 317.613C147.41 318.869 146.138 319.849 144.679 320.453C112.69 331.212 86.9195 355.761 79.3575 363.838C78.0093 365.278 77.3028 367.104 79.3575 370.139C82.6385 374.979 88.0837 382.255 91.596 387.345C94.0213 390.86 96.6854 391.101 98.867 389.77L171.101 345.771C175.819 342.96 179.513 338.714 181.643 333.652L198.85 293.785" stroke="#120071" stroke-width="2.5" stroke-linecap="round" stroke-linejoin="round"/>
<path d="M179.106 229.812C200.675 224.964 224.165 227.64 240.664 263.258C246.112 275.014 250.96 284.345 254.236 292.462C270.445 332.585 268.641 330.749 262.114 351.478C255.552 372.313 243.707 404.153 239.212 417.277C237.349 422.715 236.433 422.075 231.093 421.155C223.81 419.822 216.609 418.083 209.521 415.944C205.528 414.717 204.524 414.001 205.292 409.765C212.742 368.144 215.521 350.224 223.948 335.602C225.63 332.685 226.71 330.891 223.7 326.15C216.527 314.461 208.073 303.608 198.494 293.795" stroke="#120071" stroke-width="2.5" stroke-linecap="round" stroke-linejoin="round"/>
<path d="M228.904 244.232C236.416 227.874 240.416 225.934 248.657 220.722" stroke="#120071" stroke-width="2.5" stroke-linecap="round" stroke-linejoin="round"/>
<path d="M199.456 166.92C211.21 164.132 220.62 152.96 223.692 147.408C228.951 137.916 222.891 135.623 224.662 131.536C225.826 128.847 229.282 130.67 231.448 132.625C232.913 133.948 235.204 135.048 235.204 130.929C235.204 125.954 236.053 120.11 240.657 119.902C246.958 119.615 250.226 149.072 244.05 150.197C241.581 150.288 239.138 149.656 237.023 148.378C234.369 147.135 234.234 148.985 234.234 150.438C234.367 154.462 235.627 158.367 237.871 161.709" stroke="#120071" stroke-width="2.5" stroke-linecap="round" stroke-linejoin="round"/>
<path d="M302.218 161.945C302.765 160.622 303.456 159.363 304.277 158.189C308.506 152.154 318.371 144.063 324.998 139.406C326.705 138.207 328.856 140.488 327.787 143.043C326.675 145.699 322.095 150.436 318.697 155.04C316.64 157.828 318.946 156.132 319.424 155.766C320.747 154.705 322.167 153.772 323.667 152.978C325.737 152.033 336.408 153.704 336.51 155.523C336.657 158.067 332.282 157.826 330.088 157.585C329.712 157.546 329.331 157.591 328.976 157.717C328.62 157.843 328.297 158.045 328.028 158.311C327.302 158.915 326.453 159.764 325.364 160.856C329.605 158.796 332.391 160.978 332.513 163.4C336.269 162.43 338.781 168.958 333.846 178.306C332.503 180.845 330.209 180.972 329.968 177.699C328.513 180.365 323.424 189.211 316.396 193.574" stroke="#120071" stroke-width="2.5" stroke-linecap="round" stroke-linejoin="round"/>
<path d="M327.909 168.132C327.909 168.132 330.936 163.654 332.754 163.157" stroke="#120071" stroke-width="2.5" stroke-linecap="round" stroke-linejoin="round"/>
<path d="M322.938 163.162C322.938 163.162 324.635 161.587 325.483 160.617" stroke="#120071" stroke-width="2.5" stroke-linecap="round" stroke-linejoin="round"/>
<path d="M332.754 172.495C332.028 173.947 331.058 176.007 330.209 177.47" stroke="#120071" stroke-width="2.5" stroke-linecap="round" stroke-linejoin="round"/>
<path d="M297.369 178.069C297.976 176.007 298.842 159.413 299.066 157.346C299.576 154.138 299.777 150.89 299.673 147.644C299.566 143.888 306.459 146.552 305.732 156.49" stroke="#120071" stroke-width="2.5" stroke-linecap="round" stroke-linejoin="round"/>
<path d="M136.321 144.985C134.988 136.866 133.782 131.292 131.958 117.598C131.709 115.782 127.836 114.812 126.983 119.66C126.367 124.569 126.367 129.535 126.983 134.443C126.302 134.047 125.524 133.847 124.736 133.865C123.948 133.882 123.18 134.117 122.517 134.543C121.853 134.969 121.321 135.569 120.977 136.278C120.633 136.988 120.491 137.778 120.568 138.563C118.267 136.988 114.874 139.292 115.357 143.167C112.812 142.078 109.499 143.913 111.128 151.286C112.626 157.678 115.253 163.752 118.884 169.221" stroke="#120071" stroke-width="2.5" stroke-linecap="round" stroke-linejoin="round"/>
<path d="M141.896 160.254C141.003 154.14 141.126 147.92 142.259 141.846C142.54 138.611 143.108 135.407 143.955 132.272C144.908 128.633 137.169 130.576 135.717 140.269" stroke="#120071" stroke-width="2.5" stroke-linecap="round" stroke-linejoin="round"/>
<path d="M127.961 139.655C127.961 139.655 127.234 136.262 126.991 134.443" stroke="#120071" stroke-width="2.5" stroke-linecap="round" stroke-linejoin="round"/>
<path d="M120.931 141.714C120.682 140.503 120.682 139.411 120.568 138.562" stroke="#120071" stroke-width="2.5" stroke-linecap="round" stroke-linejoin="round"/>
<path d="M115.841 146.077C115.578 145.127 115.411 144.151 115.344 143.167" stroke="#120071" stroke-width="2.5" stroke-linecap="round" stroke-linejoin="round"/>
<path d="M171.465 175.403C159.346 172.373 151.338 152.485 163.709 142.685C174.121 134.431 184.701 140.523 190.367 133.11C195.725 126.103 183.912 116.829 193.519 109.359C199.315 104.85 206.735 106.971 213.877 105.481C220.67 104.064 221.511 98.5712 229.63 97.8473C240.538 96.8747 253.139 112.994 244.898 125.235" stroke="#120071" stroke-width="2.5" stroke-linecap="round" stroke-linejoin="round"/>
<path d="M208.909 415.702C203.82 428.667 197.762 430.244 197.762 436.067C197.762 440.794 203.695 450.975 207.464 460.91C211.459 471.455 214.493 482.238 219.339 480.42C225.157 478.238 223.07 450.241 225.157 436.431C226.81 431.142 228.793 425.961 231.095 420.921" stroke="#120071" stroke-width="2.5" stroke-linecap="round" stroke-linejoin="round"/>
<path d="M79.2456 370.017C67.6115 377.529 62.2435 376.047 58.766 380.803C55.9476 384.658 54.9079 396.439 52.102 406.613C49.0921 417.526 45.3161 427.941 50.4055 429.396C56.3431 431.092 70.9746 407.19 80.8201 397.282C84.7618 394.277 88.8901 391.524 93.1805 389.041" stroke="#120071" stroke-width="2.5" stroke-linecap="round" stroke-linejoin="round"/>
<path d="M362.928 412.551L380.984 400.797L360.505 373.169L343.54 403.098L362.928 412.551Z" stroke="#120071" stroke-width="2.5" stroke-linecap="round" stroke-linejoin="round"/>
<path d="M343.54 403.098L361.716 393.768L380.984 400.797" stroke="#120071" stroke-width="2.5" stroke-linecap="round" stroke-linejoin="round"/>
<path d="M378.925 406.25L364.02 430L346.811 409.036" stroke="#120071" stroke-width="2.5" stroke-linecap="round" stroke-linejoin="round"/>
<path d="M364.02 430L363.049 415.459" stroke="#120071" stroke-width="2.5" stroke-linecap="round" stroke-linejoin="round"/>
<path d="M362.928 412.551L360.505 373.169" stroke="#120071" stroke-width="2.5" stroke-linecap="round" stroke-linejoin="round"/>
<path d="M63.4922 104.755L73.5517 97.1187L62.1589 79.3058L52.8283 98.5739L63.4922 104.755Z" stroke="#120071" stroke-width="2.5" stroke-linecap="round" stroke-linejoin="round"/>
<path d="M73.5517 97.1185L64.0992 116.023L52.8283 98.5737" stroke="#120071" stroke-width="2.5" stroke-linecap="round" stroke-linejoin="round"/>
<path d="M46.7713 283.494V303.732C46.77 307.138 45.4163 310.404 43.0082 312.812C40.6 315.222 37.3342 316.575 33.9283 316.575H13.6875" stroke="#120071" stroke-width="2.5" stroke-linecap="round" stroke-linejoin="round"/>
<path d="M46.7713 303.611C46.7732 307.016 48.1274 310.282 50.5358 312.692C52.9445 315.1 56.2106 316.454 59.617 316.456" stroke="#120071" stroke-width="2.5" stroke-linecap="round" stroke-linejoin="round"/>
<path d="M46.7712 349.659V329.421C46.7698 326.015 45.4163 322.749 43.0082 320.339C40.6 317.931 37.3342 316.578 33.9283 316.575" stroke="#120071" stroke-width="2.5" stroke-linecap="round" stroke-linejoin="round"/>
<path d="M46.7713 329.421C46.7732 326.015 48.1274 322.749 50.5358 320.339C52.9445 317.931 56.2106 316.578 59.617 316.575H79.855" stroke="#120071" stroke-width="2.5" stroke-linecap="round" stroke-linejoin="round"/>
<path d="M139.617 99.5087C140.311 99.6786 141.032 99.7023 141.736 99.5776C142.439 99.4533 143.108 99.1834 143.701 98.7854C144.294 98.3874 144.798 97.87 145.179 97.2665C145.561 96.6628 145.813 95.9862 145.918 95.28C146.062 93.8101 145.641 92.341 144.74 91.1706C143.84 90.0003 142.527 89.2167 141.07 88.9792C140.377 88.803 139.654 88.7714 138.948 88.8861C138.242 89.0005 137.567 89.259 136.965 89.6453C136.363 90.0314 135.846 90.5373 135.448 91.1311C135.049 91.7251 134.777 92.3947 134.647 93.0985C134.506 94.5982 134.942 96.0956 135.865 97.2862C136.788 98.4767 138.129 99.2714 139.617 99.5087Z" stroke="#120071" stroke-width="2.5"/>
<path d="M111.623 102.897C112.387 103.077 113.179 103.104 113.953 102.977C114.728 102.849 115.469 102.568 116.134 102.152C116.799 101.735 117.375 101.191 117.828 100.55C118.282 99.9095 118.603 99.1851 118.774 98.4192C118.837 96.8404 118.323 95.2929 117.329 94.0651C116.334 92.8373 114.927 92.0129 113.37 91.7458C111.813 91.4788 110.211 91.7873 108.865 92.6139C107.518 93.4402 106.518 94.7283 106.051 96.2377C105.97 97.8454 106.499 99.4244 107.532 100.659C108.565 101.893 110.026 102.692 111.623 102.897Z" stroke="#120071" stroke-width="2.5"/>
</svg>
